<svg width="201" height="200" viewBox="0 0 201 200" fill="none" xmlns="http://www.w3.org/2000/svg">
<path d="M91.0681 132.92C126.024 138.584 168.7 134.84 176.86 94.9441C184.26 58.7521 150.956 28.4961 113.564 40.1441C97.4361 45.1681 89.9161 60.6001 72.6041 63.2121C55.2921 65.8241 33.3001 59.4841 26.2521 81.7201C15.3321 116.144 68.0641 129.2 91.0681 132.92Z" fill="#00AE50"/>
<path opacity="0.9" d="M91.0681 132.92C126.024 138.584 168.7 134.84 176.86 94.9441C184.26 58.7521 150.956 28.4961 113.564 40.1441C97.4361 45.1681 89.9161 60.6001 72.6041 63.2121C55.2921 65.8241 33.3001 59.4841 26.2521 81.7201C15.3321 116.144 68.0641 129.2 91.0681 132.92Z" fill="white"/>
<path d="M100.5 171.025C143.333 171.025 178.056 168.997 178.056 166.497C178.056 163.996 143.333 161.969 100.5 161.969C57.6671 161.969 22.9441 163.996 22.9441 166.497C22.9441 168.997 57.6671 171.025 100.5 171.025Z" fill="#F5F5F5"/>
<path d="M165.956 59.293H105.668C105.668 59.293 94.8081 69.293 94.8081 93.605C94.8081 114.513 103.044 142.861 99.9521 154.465C97.6201 163.221 86.3121 164.725 80.8921 164.933H138.276C138.276 164.933 157.148 166.073 160.24 154.465C163.332 142.857 155.096 114.513 155.096 93.601C155.096 69.277 165.956 59.293 165.956 59.293Z" fill="#00AE50"/>
<path opacity="0.7" d="M165.956 59.293H105.668C105.668 59.293 94.8081 69.293 94.8081 93.605C94.8081 114.513 103.044 142.861 99.9521 154.465C97.6201 163.221 86.3121 164.725 80.8921 164.933H138.276C138.276 164.933 157.148 166.073 160.24 154.465C163.332 142.857 155.096 114.513 155.096 93.601C155.096 69.277 165.956 59.293 165.956 59.293Z" fill="white"/>
<g opacity="0.8">
<path opacity="0.8" d="M149.556 84.933H101.34C102.704 74.237 106.38 68.013 108.408 65.293H154.9C152.62 70.053 150.468 76.537 149.556 84.933Z" fill="#00AE50"/>
<path opacity="0.3" d="M149.152 90.6053H100.868C100.908 89.6333 100.964 88.6893 101.044 87.7773H149.3C149.233 88.6973 149.184 89.64 149.152 90.6053Z" fill="#00AE50"/>
<path opacity="0.3" d="M116.008 96.2732H100.852C100.825 95.3692 100.811 94.4799 100.808 93.6052V93.4492H115.968V93.6012C115.968 94.4852 115.98 95.3772 116.008 96.2732Z" fill="#00AE50"/>
<path opacity="0.3" d="M149.44 101.941H101.192C101.108 100.989 101.04 100.045 100.988 99.1172H149.256C149.304 100.053 149.365 100.995 149.44 101.941Z" fill="#00AE50"/>
<path opacity="0.3" d="M149.972 107.601H101.764C101.652 106.655 101.548 105.712 101.452 104.773H149.7C149.768 105.725 149.868 106.669 149.972 107.601Z" fill="#00AE50"/>
<path opacity="0.3" d="M150.668 113.281H102.5C102.368 112.337 102.244 111.393 102.124 110.457H150.308C150.42 111.398 150.54 112.34 150.668 113.281Z" fill="#00AE50"/>
<path opacity="0.3" d="M151.464 118.949H103.3C103.161 118.005 103.028 117.064 102.9 116.125H151.06C151.192 117.065 151.328 118.001 151.464 118.949Z" fill="#00AE50"/>
<path opacity="0.3" d="M152.316 124.621H104.168C104.092 124.105 104.012 123.581 103.932 123.057L103.74 121.793H151.888C152.032 122.737 152.172 123.681 152.316 124.621Z" fill="#00AE50"/>
<path opacity="0.3" d="M105.008 130.289C104.875 129.356 104.741 128.414 104.608 127.465H152.748C152.888 128.409 153.032 129.349 153.168 130.289H105.008Z" fill="#00AE50"/>
<path opacity="0.3" d="M105.772 135.957C105.66 135.033 105.536 134.089 105.408 133.133H145.568C145.704 134.085 145.832 135.029 145.968 135.957H105.772Z" fill="#00AE50"/>
<path opacity="0.3" d="M106.364 141.629C106.287 140.706 106.199 139.763 106.1 138.801H154.308C154.416 139.769 154.516 140.713 154.6 141.629H106.364Z" fill="#00AE50"/>
<path opacity="0.3" d="M106.64 147.297C106.64 146.385 106.604 145.441 106.552 144.473H131.988C132.052 145.461 132.088 146.405 132.1 147.297H106.64Z" fill="#00AE50"/>
</g>
<path d="M142.9 161.872C139.84 162.428 136.74 162.004 133.664 161.872C132.189 161.777 130.708 161.816 129.24 161.988C127.8 162.18 126.368 162.556 124.916 162.428C125.396 162.171 125.848 161.864 126.264 161.512C126.282 161.494 126.296 161.472 126.303 161.447C126.31 161.422 126.31 161.395 126.303 161.37C126.297 161.345 126.284 161.322 126.266 161.303C126.248 161.285 126.225 161.271 126.2 161.264C121.684 159.664 117.572 163.992 113.072 162.984C114.348 162.04 116.144 162.02 117.232 160.78C117.252 160.759 117.266 160.732 117.271 160.703C117.276 160.674 117.273 160.644 117.261 160.617C117.25 160.59 117.231 160.567 117.206 160.551C117.182 160.534 117.153 160.525 117.124 160.524C113.1 160.444 109.3 162 105.3 162.356C105.108 162.356 105.108 162.672 105.3 162.656C109.16 162.32 112.86 160.844 116.752 160.812C115.588 161.852 113.812 161.888 112.628 162.936C112.61 162.955 112.596 162.978 112.59 163.003C112.583 163.029 112.583 163.055 112.589 163.08C112.595 163.106 112.608 163.129 112.626 163.148C112.644 163.167 112.667 163.181 112.692 163.188C117.228 164.44 121.356 160.112 125.836 161.448C125.369 161.815 124.86 162.125 124.32 162.372C124.295 162.388 124.274 162.41 124.262 162.437C124.249 162.463 124.244 162.493 124.248 162.522C124.252 162.551 124.264 162.579 124.283 162.601C124.302 162.624 124.328 162.64 124.356 162.648C125.832 162.896 127.276 162.58 128.732 162.348C130.362 162.115 132.012 162.05 133.656 162.156C136.764 162.304 139.884 162.724 142.972 162.156C143.176 162.128 143.096 161.836 142.9 161.872Z" fill="#00AE50"/>
<path d="M61.2519 74.0508C61.5039 74.3748 61.8279 74.7548 62.1239 75.1068C62.4199 75.4588 62.7439 75.8148 63.0639 76.1588C63.7079 76.8468 64.3599 77.5228 65.0639 78.1588C66.3694 79.3983 67.8524 80.4364 69.4639 81.2388C69.6599 81.3268 69.8639 81.4068 70.0439 81.4788C70.1329 81.5142 70.2237 81.5449 70.3159 81.5708C70.4013 81.6045 70.4897 81.63 70.5799 81.6468C70.9638 81.7455 71.3563 81.8071 71.7519 81.8308C72.6375 81.8738 73.5251 81.8229 74.3999 81.6788C75.329 81.5371 76.2492 81.3421 77.1559 81.0948C78.0759 80.8548 79.0159 80.5588 79.8919 80.2508L80.6919 81.8508C78.9137 82.9623 76.9883 83.8187 74.9719 84.3948C73.9087 84.6992 72.8129 84.8751 71.7079 84.9188C71.1095 84.9428 70.5102 84.9039 69.9199 84.8028C69.7679 84.7788 69.6119 84.7428 69.4599 84.7068C69.3079 84.6708 69.1479 84.6308 69.0159 84.5868C68.7359 84.5028 68.4639 84.4108 68.2159 84.3068C66.18 83.4696 64.3063 82.2823 62.6799 80.7988C61.8862 80.1109 61.1292 79.3819 60.4119 78.6148C60.0559 78.2148 59.7079 77.8428 59.3719 77.4428C59.0359 77.0428 58.7159 76.6428 58.3679 76.1828L61.2519 74.0508Z" fill="#FFB573"/>
<path d="M57.1839 72.9199C57.0959 75.1599 57.9839 79.1999 57.9839 79.1999L63.5279 78.5279C63.5279 78.5279 63.7319 72.6159 62.6559 71.1879C60.8359 68.7999 57.2679 70.7999 57.1839 72.9199Z" fill="url(#paint0_linear_44_38371)"/>
<path d="M79.1479 80.8194L81.744 78.4434L82.076 81.0034C82.076 81.0034 80.9999 82.4474 79.7799 81.8394L79.1479 80.8194Z" fill="#FFB573"/>
<path d="M83.0479 78.5834L84.1479 80.0234L82.0759 81.0034L81.7439 78.4434L83.0479 78.5834Z" fill="#FFB573"/>
<path d="M82.3919 72.1079C82.6679 72.1079 82.8199 72.1079 83.0159 72.1079C83.0998 72.1021 83.184 72.1021 83.2679 72.1079L83.4759 72.1359C83.6554 72.157 83.8264 72.2245 83.9719 72.3319C84.0426 72.4152 84.0896 72.5161 84.1079 72.6239L84.1999 72.9279L84.5719 74.1279L85.3159 76.5559L86.7999 81.4158C87.7799 84.6558 88.7999 87.8878 89.7439 91.1358C91.6839 97.6238 93.5199 104.136 95.3239 110.66C97.1279 117.184 98.8239 123.736 100.568 130.26C102.312 136.784 103.872 143.384 104.428 150.232C104.448 150.69 104.31 151.141 104.038 151.509C103.765 151.877 103.374 152.141 102.931 152.256C102.487 152.371 102.017 152.33 101.6 152.139C101.183 151.949 100.844 151.622 100.64 151.212C97.7999 144.956 95.9439 138.448 94.3199 131.88C92.6959 125.312 90.9719 118.8 89.3799 112.236C87.7879 105.672 86.2319 99.0718 84.7759 92.4598C84.0279 89.1598 83.3479 85.8399 82.6319 82.5319L81.5719 77.5639L81.0399 75.0799L80.7759 73.8359L80.7079 73.5279C80.6716 73.4238 80.6633 73.3121 80.6839 73.2038C80.7617 73.0452 80.8771 72.9079 81.0199 72.8038L81.1919 72.6759C81.2578 72.6256 81.3274 72.5801 81.3999 72.5399C81.5719 72.4399 81.6959 72.3559 81.9439 72.2359C82.0834 72.1643 82.2356 72.1208 82.3919 72.1079Z" fill="#263238"/>
<path d="M104.044 151.263C104.014 151.155 103.943 151.063 103.845 151.006C103.748 150.95 103.633 150.935 103.524 150.963L102.644 151.191L101.764 151.419C101.655 151.447 101.562 151.517 101.504 151.614C101.446 151.71 101.429 151.826 101.456 151.935C102.004 154.455 101.456 156.259 102.04 158.475C102.644 160.807 105.272 162.003 105.272 162.003L105.188 161.007L105.588 161.919C105.588 161.919 107.304 159.599 106.7 157.267C106.132 155.051 104.788 153.731 104.044 151.263Z" fill="url(#paint1_linear_44_38371)"/>
<path opacity="0.3" d="M104.044 151.263C104.014 151.155 103.943 151.063 103.845 151.006C103.748 150.95 103.633 150.935 103.524 150.963L102.644 151.191L101.764 151.419C101.655 151.447 101.562 151.517 101.504 151.614C101.446 151.71 101.429 151.826 101.456 151.935C102.004 154.455 101.456 156.259 102.04 158.475C102.644 160.807 105.272 162.003 105.272 162.003L105.188 161.007L105.588 161.919C105.588 161.919 107.304 159.599 106.7 157.267C106.132 155.051 104.788 153.731 104.044 151.263Z" fill="white"/>
<path d="M104.728 157.047C104.754 157.152 104.748 157.262 104.711 157.364C104.674 157.466 104.608 157.555 104.521 157.619C104.434 157.683 104.33 157.72 104.222 157.725C104.114 157.731 104.007 157.704 103.914 157.648C103.821 157.593 103.747 157.511 103.701 157.413C103.654 157.315 103.638 157.206 103.653 157.099C103.669 156.992 103.716 156.892 103.788 156.812C103.861 156.731 103.955 156.674 104.06 156.647C104.201 156.612 104.351 156.634 104.476 156.709C104.602 156.784 104.692 156.906 104.728 157.047Z" fill="#263238"/>
<path d="M105.22 161.128C105.204 161.133 105.188 161.134 105.171 161.132C105.155 161.13 105.139 161.125 105.125 161.117C105.111 161.109 105.098 161.097 105.088 161.084C105.079 161.071 105.072 161.056 105.068 161.04L104.076 157.22C104.072 157.204 104.071 157.188 104.073 157.171C104.075 157.155 104.08 157.14 104.088 157.125C104.097 157.111 104.108 157.099 104.12 157.089C104.133 157.079 104.148 157.072 104.164 157.068C104.18 157.063 104.196 157.061 104.213 157.063C104.229 157.065 104.245 157.07 104.259 157.079C104.273 157.087 104.286 157.098 104.296 157.111C104.305 157.125 104.312 157.14 104.316 157.156L105.308 160.976C105.312 160.991 105.313 161.008 105.311 161.024C105.309 161.04 105.304 161.056 105.296 161.07C105.287 161.084 105.277 161.096 105.264 161.106C105.251 161.116 105.236 161.124 105.22 161.128Z" fill="#263238"/>
<path d="M101.98 137.528L96.5879 138.924C96.4383 138.962 96.2799 138.939 96.1473 138.86C96.0146 138.781 95.9185 138.653 95.8799 138.504C95.8414 138.357 95.8617 138.201 95.9364 138.069C96.011 137.937 96.1342 137.839 96.2799 137.796L101.7 136.4C101.847 136.361 102.003 136.382 102.135 136.456C102.267 136.531 102.365 136.654 102.408 136.8C102.429 136.876 102.434 136.955 102.424 137.033C102.414 137.111 102.388 137.187 102.348 137.254C102.308 137.322 102.255 137.382 102.192 137.429C102.128 137.476 102.056 137.509 101.98 137.528Z" fill="url(#paint2_linear_44_38371)"/>
<path d="M74.6079 64.3194C74.5119 64.5594 74.5639 64.8114 74.7199 64.8794C74.8759 64.9474 75.0839 64.8074 75.1799 64.5674C75.2759 64.3274 75.2279 64.0754 75.0679 64.0074C74.9079 63.9394 74.7079 64.0794 74.6079 64.3194Z" fill="#263238"/>
<path d="M74.9958 64L75.6398 64.084C75.6398 64.084 75.1598 64.4 74.9958 64Z" fill="#263238"/>
<path d="M74.7198 64.6387C74.7135 65.2826 74.7942 65.9244 74.9598 66.5467C74.8003 66.5807 74.6352 66.5794 74.4763 66.5427C74.3173 66.5061 74.1683 66.4351 74.0398 66.3347L74.7198 64.6387Z" fill="#ED893E"/>
<path d="M75.5758 62.8555C75.5508 62.8507 75.5275 62.8397 75.5078 62.8235C75.3639 62.692 75.1916 62.5954 75.0043 62.5413C74.817 62.4872 74.6197 62.477 74.4278 62.5115C74.3886 62.5214 74.3471 62.5157 74.312 62.4955C74.2769 62.4754 74.2511 62.4424 74.2398 62.4035C74.23 62.3643 74.2357 62.3228 74.2558 62.2877C74.276 62.2526 74.309 62.2268 74.3478 62.2155C74.5881 62.1679 74.8363 62.1771 75.0724 62.2424C75.3085 62.3077 75.5261 62.4272 75.7078 62.5915C75.7221 62.6057 75.7334 62.6225 75.7412 62.641C75.7489 62.6596 75.7529 62.6795 75.7529 62.6996C75.7529 62.7196 75.7489 62.7395 75.7412 62.7581C75.7334 62.7766 75.7221 62.7934 75.7078 62.8076C75.6915 62.8259 75.6709 62.8398 75.6479 62.8482C75.6249 62.8566 75.6001 62.8591 75.5758 62.8555Z" fill="#263238"/>
<path d="M66.1279 64.1953C66.2999 66.1433 65.6519 69.3313 64.1799 70.4153C64.1799 70.4153 65.2879 72.4633 68.8359 72.9393C72.7359 73.4633 70.9039 71.2673 70.9039 71.2673C68.8279 70.4673 69.0519 68.9193 69.5759 67.4953L66.1279 64.1953Z" fill="#FFB573"/>
<path d="M76.7559 74.5918C77.0639 76.4078 77.4439 78.2918 77.8399 80.1278C78.0519 81.0438 78.2639 81.9638 78.5119 82.8638C78.7599 83.7638 79.0079 84.6638 79.2839 85.5478C79.4359 85.9838 79.5719 86.4278 79.7319 86.8518L79.9719 87.4918L80.0279 87.6478V87.6958C80.0359 87.7203 80.0452 87.7443 80.0559 87.7678C80.1384 87.9104 80.2733 88.0152 80.4319 88.0598C80.7483 88.1725 81.0802 88.2359 81.4159 88.2478C82.2742 88.2715 83.1326 88.2017 83.9759 88.0398C84.8599 87.8798 85.7919 87.6638 86.6599 87.4238L87.3919 89.0438C86.9508 89.3063 86.4969 89.5466 86.0319 89.7638C85.5723 89.989 85.101 90.1893 84.6199 90.3638C83.6126 90.7572 82.5561 91.0102 81.4799 91.1158C80.8477 91.1733 80.2105 91.1301 79.5919 90.9878C78.7992 90.8071 78.0855 90.3766 77.5559 89.7598C77.4189 89.5942 77.2958 89.4176 77.1879 89.2318C77.1319 89.1398 77.0879 89.0438 77.0399 88.9518L76.9639 88.7718L76.6519 88.0718C76.4479 87.6038 76.2519 87.1358 76.0799 86.6638C75.7359 85.7198 75.4079 84.7718 75.1239 83.8198C74.8399 82.8678 74.5839 81.9078 74.3239 80.9478C73.8479 79.0198 73.4599 77.1118 73.1719 75.1158L76.7559 74.5918Z" fill="#FFB573"/>
<path d="M86.2758 87.5345L87.8198 86.3105L88.5158 88.6865C88.5158 88.6865 86.4038 90.2145 85.8398 88.4185L86.2758 87.5345Z" fill="#FFB573"/>
<path d="M89.216 86.7305L89.768 88.4665L88.516 88.6865L87.824 86.3105L89.216 86.7305Z" fill="#FFB573"/>
<path d="M60.3679 162.963L63.5959 163.203L64.5519 155.791L61.3239 155.551L60.3679 162.963Z" fill="#FFB573"/>
<path d="M39.6958 153.546L42.4918 155.246L47.1438 149.438L44.3478 147.738L39.6958 153.546Z" fill="#FFB573"/>
<path d="M44.4439 156.103C44.4041 156.109 44.3636 156.109 44.3239 156.103C43.9239 156.103 43.4479 155.479 43.2079 155.111C43.1991 155.099 43.1943 155.084 43.1943 155.069C43.1943 155.054 43.1991 155.039 43.2079 155.027C43.2156 155.014 43.2269 155.004 43.2404 154.998C43.2539 154.991 43.2691 154.989 43.2839 154.991C43.4159 155.019 44.5719 155.263 44.7239 155.647C44.7402 155.689 44.745 155.735 44.738 155.78C44.731 155.825 44.7123 155.868 44.6839 155.903C44.6302 155.996 44.5451 156.067 44.4439 156.103ZM43.4439 155.195C43.7839 155.675 44.1079 155.959 44.3279 155.963C44.3758 155.964 44.4229 155.951 44.4644 155.927C44.5059 155.903 44.5403 155.869 44.5639 155.827C44.5745 155.81 44.5802 155.791 44.5802 155.771C44.5802 155.751 44.5745 155.732 44.5639 155.715C44.4999 155.511 43.9039 155.307 43.4439 155.199V155.195Z" fill="url(#paint3_linear_44_38371)"/>
<path d="M44.2718 155.104C43.9395 155.194 43.5916 155.212 43.2518 155.156C43.2392 155.151 43.2278 155.144 43.2187 155.134C43.2096 155.124 43.2031 155.113 43.1998 155.1C43.1935 155.089 43.1902 155.076 43.1902 155.064C43.1902 155.051 43.1935 155.039 43.1998 155.028C43.2238 155 43.8598 154.348 44.3278 154.368C44.3882 154.368 44.4477 154.383 44.5017 154.41C44.5558 154.437 44.603 154.476 44.6398 154.524C44.6831 154.566 44.7107 154.622 44.718 154.683C44.7252 154.743 44.7118 154.804 44.6798 154.856C44.574 154.98 44.4309 155.067 44.2718 155.104ZM43.4318 155.032C43.8318 155.076 44.4478 154.96 44.5718 154.776C44.5718 154.744 44.6038 154.7 44.5398 154.62C44.5162 154.589 44.486 154.564 44.4513 154.547C44.4167 154.529 44.3786 154.52 44.3398 154.52C43.9914 154.592 43.6741 154.771 43.4318 155.032Z" fill="url(#paint4_linear_44_38371)"/>
<path d="M43.3319 154.624L40.6799 152.072C40.6361 152.027 40.5772 151.999 40.5145 151.995C40.4518 151.99 40.3896 152.009 40.3399 152.048L38.0759 153.792C38.0213 153.84 37.9777 153.899 37.9477 153.966C37.9178 154.033 37.9023 154.105 37.9023 154.178C37.9023 154.251 37.9178 154.323 37.9477 154.389C37.9777 154.456 38.0213 154.515 38.0759 154.564C39.0159 155.44 39.5119 155.816 40.6759 156.94C41.3959 157.632 42.3719 158.712 43.3639 159.668C44.3559 160.624 45.3239 159.72 44.9959 159.236C43.5159 157.068 43.7359 156.256 43.6039 155.148C43.5757 154.947 43.4797 154.762 43.3319 154.624Z" fill="#263238"/>
<path d="M64.9959 163.306C64.6543 163.3 64.3141 163.261 63.9799 163.19C63.9645 163.187 63.9504 163.179 63.9397 163.168C63.9289 163.157 63.922 163.142 63.9199 163.126C63.9178 163.111 63.9205 163.095 63.9276 163.08C63.9348 163.066 63.946 163.054 63.9599 163.046C64.1079 162.97 65.4199 162.31 65.8039 162.534C65.8408 162.553 65.8718 162.582 65.8937 162.617C65.9155 162.652 65.9273 162.693 65.9279 162.734C65.9361 162.804 65.9269 162.874 65.901 162.939C65.8752 163.004 65.8335 163.062 65.7799 163.106C65.5486 163.26 65.2723 163.33 64.9959 163.306ZM64.2359 163.082C64.9479 163.198 65.4799 163.17 65.6799 162.994C65.7152 162.964 65.7424 162.926 65.7592 162.883C65.7759 162.839 65.7817 162.792 65.7759 162.746C65.777 162.73 65.7735 162.714 65.7657 162.7C65.7579 162.686 65.7461 162.674 65.7319 162.666C65.5159 162.546 64.7759 162.826 64.2359 163.082Z" fill="url(#paint5_linear_44_38371)"/>
<path d="M63.9959 163.2C63.9815 163.204 63.9663 163.204 63.9519 163.2C63.9401 163.192 63.9308 163.182 63.9251 163.169C63.9195 163.156 63.9176 163.142 63.9199 163.128C63.9199 163.072 64.0759 161.752 64.7999 161.752H64.8599C65.0719 161.772 65.1319 161.876 65.1439 161.964C65.2039 162.328 64.4199 163.028 64.0279 163.204L63.9959 163.2ZM64.7959 161.892C64.3319 161.892 64.1479 162.66 64.0919 162.988C64.4919 162.748 65.0239 162.188 64.9879 161.98C64.9879 161.96 64.9879 161.908 64.8399 161.896L64.7959 161.892Z" fill="url(#paint6_linear_44_38371)"/>
<path d="M63.796 162.742H60.168C60.1051 162.742 60.0443 162.764 59.9961 162.804C59.9478 162.845 59.9152 162.9 59.9039 162.962L59.4159 165.83C59.4062 165.902 59.412 165.975 59.4329 166.045C59.4538 166.114 59.4893 166.178 59.5371 166.233C59.5848 166.287 59.6437 166.331 59.7097 166.361C59.7758 166.391 59.8474 166.406 59.92 166.406C61.184 166.406 61.7959 166.31 63.3919 166.31C64.3719 166.31 66.4 166.41 67.756 166.41C69.112 166.41 69.22 165.07 68.656 164.95C66.14 164.406 65.164 163.654 64.332 162.95C64.1835 162.82 63.9936 162.746 63.796 162.742Z" fill="#263238"/>
<path opacity="0.2" d="M64.5519 155.791L64.0199 159.911L60.8279 159.375L61.3239 155.555L64.5519 155.791Z" fill="black"/>
<path opacity="0.2" d="M44.3439 147.738L47.1439 149.442L45.2159 151.842L42.3599 150.214L44.3439 147.738Z" fill="black"/>
<path d="M58.7398 89.863L71.8078 91.619C76.8718 73.291 75.3798 72.799 75.3798 72.799C74.804 72.5245 74.2091 72.2919 73.5998 72.103C72.9838 71.879 72.3612 71.675 71.7318 71.491C70.4747 71.1179 69.1964 70.82 67.9038 70.599C65.395 70.1677 62.8452 70.0241 60.3038 70.171C60.0491 70.1888 59.8018 70.2639 59.5801 70.3906C59.3585 70.5174 59.1683 70.6925 59.0238 70.903C58.9695 70.9811 58.9226 71.0642 58.8838 71.151C58.7416 71.4554 58.6863 71.7932 58.7238 72.127C59.8278 81.759 59.4718 84.927 58.7398 89.863Z" fill="url(#paint7_linear_44_38371)"/>
<path opacity="0.2" d="M73.0799 78.3997C72.8226 80.2961 73.0667 82.2269 73.7879 83.9997C74.6559 80.4237 75.1279 77.9997 75.3599 76.3197C74.3639 76.2757 73.3279 76.6597 73.0799 78.3997Z" fill="black"/>
<path d="M75.2638 72.7347C77.5038 74.0147 79.0598 77.0667 79.5278 78.8387L74.7598 83.1987C74.7598 83.1987 72.2878 77.4507 72.4878 75.6667C72.6878 73.8827 74.4198 72.2507 75.2638 72.7347Z" fill="url(#paint8_linear_44_38371)"/>
<path d="M66.8359 60.1751C65.8319 63.2071 65.3439 64.4671 66.2239 66.6271C67.5519 69.8791 71.4839 70.5671 73.3719 67.9231C75.0719 65.5431 76.4279 60.9831 74.0079 58.5591C73.4994 58.0183 72.8586 57.6195 72.1488 57.402C71.4389 57.1846 70.6847 57.156 69.9605 57.3192C69.2363 57.4824 68.5672 57.8317 68.0192 58.3325C67.4712 58.8333 67.0634 59.4685 66.8359 60.1751Z" fill="#FFB573"/>
<path d="M71.808 62.8637C71.5971 63.4198 71.5635 64.0277 71.712 64.6037C71.912 65.4037 72.512 65.4717 72.884 64.9557C73.256 64.4397 73.508 63.5077 73.108 62.8357C72.708 62.1637 72.068 62.2517 71.808 62.8637Z" fill="#FFB573"/>
<path d="M67.9238 56.3991C65.7638 55.1991 61.8759 58.7111 60.8999 64.4431C60.1999 68.5471 68.9639 70.5311 74.4999 70.4671C74.1319 69.4991 71.8319 66.5871 73.2998 63.7831C74.3679 61.7471 75.5839 62.2191 75.6639 59.8511C75.7639 56.8671 71.8118 54.8671 67.9238 56.3991Z" fill="#263238"/>
<path d="M72.8399 57.6866C75.3519 57.4426 77.8758 59.9106 76.0038 62.3706C75.5466 62.004 75.0144 61.7422 74.4448 61.604C73.8753 61.4658 73.2823 61.4544 72.7078 61.5706C71.5598 61.8266 72.8399 57.6866 72.8399 57.6866Z" fill="#263238"/>
<path d="M68.3599 91.1552C68.3599 91.1552 63.2999 112.603 60.8999 124.927C58.3959 137.927 46.3919 151.471 46.3919 151.471L42.3279 149.199C42.3279 149.199 49.8799 136.839 52.3279 124.699C57.3039 100.059 53.9279 95.0992 58.7279 89.8672L68.3599 91.1552Z" fill="#263238"/>
<path d="M46.8078 151.852L41.7158 149.016L42.4598 147.512L48.1718 150.14L46.8078 151.852Z" fill="url(#paint9_linear_44_38371)"/>
<path opacity="0.2" d="M65.6599 95.8158C61.7159 99.2438 62.1439 111.416 62.5559 116.88C64.2119 109.088 66.1999 100.416 67.3559 95.3958C66.9519 95.0838 66.3879 95.1998 65.6599 95.8158Z" fill="black"/>
<path d="M71.6159 91.6278C71.6159 91.6278 73.8999 117.096 72.6519 126.808C71.3559 136.912 64.7639 158.892 64.7639 158.892L60.0999 158.292C60.0999 158.292 63.8839 136.508 64.5559 126.508C65.2879 115.6 62.0359 90.3438 62.0359 90.3438L71.6159 91.6278Z" fill="#263238"/>
<path d="M65.7519 159.16L59.1199 158.304L59.2199 156.344L66.4199 157.04L65.7519 159.16Z" fill="url(#paint10_linear_44_38371)"/>
<path d="M58.624 89.0751L57.912 90.1591C57.856 90.2431 57.956 90.3471 58.104 90.3671L71.812 92.2071C71.932 92.2071 72.036 92.1791 72.048 92.1071L72.292 90.9631C72.292 90.8831 72.212 90.7991 72.084 90.7831L58.848 89.0071C58.808 88.9987 58.7665 89.0006 58.7273 89.0125C58.6882 89.0244 58.6527 89.0459 58.624 89.0751Z" fill="url(#paint11_linear_44_38371)"/>
<path opacity="0.5" d="M58.624 89.0751L57.912 90.1591C57.856 90.2431 57.956 90.3471 58.104 90.3671L71.812 92.2071C71.932 92.2071 72.036 92.1791 72.048 92.1071L72.292 90.9631C72.292 90.8831 72.212 90.7991 72.084 90.7831L58.848 89.0071C58.808 88.9987 58.7665 89.0006 58.7273 89.0125C58.6882 89.0244 58.6527 89.0459 58.624 89.0751Z" fill="black"/>
<path d="M60.2479 90.7988L59.8919 90.7508C59.8199 90.7508 59.7719 90.6988 59.7799 90.6548L60.1079 89.1668C60.1079 89.1268 60.1839 89.0988 60.2519 89.1068L60.6079 89.1548C60.6799 89.1548 60.7279 89.2068 60.7199 89.2508L60.3919 90.7388C60.3839 90.7628 60.3159 90.7988 60.2479 90.7988Z" fill="#263238"/>
<path d="M69.2 91.9995L68.844 91.9515C68.776 91.9515 68.724 91.8995 68.732 91.8555L69.06 90.3675C69.06 90.3235 69.136 90.2955 69.208 90.3075L69.56 90.3515C69.632 90.3515 69.68 90.4075 69.672 90.4515L69.344 91.9355C69.336 91.9995 69.268 91.9995 69.2 91.9995Z" fill="#263238"/>
<defs>
<linearGradient id="paint0_linear_44_38371" x1="63.5433" y1="70.1035" x2="55.2093" y2="75.5173" gradientUnits="userSpaceOnUse">
<stop stop-color="#F5E906"/>
<stop offset="1" stop-color="#635F00"/>
</linearGradient>
<linearGradient id="paint1_linear_44_38371" x1="106.829" y1="150.949" x2="98.5055" y2="154.713" gradientUnits="userSpaceOnUse">
<stop stop-color="#F5E906"/>
<stop offset="1" stop-color="#635F00"/>
</linearGradient>
<linearGradient id="paint2_linear_44_38371" x1="102.429" y1="136.381" x2="100.596" y2="140.746" gradientUnits="userSpaceOnUse">
<stop stop-color="#F5E906"/>
<stop offset="1" stop-color="#635F00"/>
</linearGradient>
<linearGradient id="paint3_linear_44_38371" x1="44.7411" y1="154.99" x2="43.6551" y2="156.386" gradientUnits="userSpaceOnUse">
<stop stop-color="#F5E906"/>
<stop offset="1" stop-color="#635F00"/>
</linearGradient>
<linearGradient id="paint4_linear_44_38371" x1="44.7199" y1="154.367" x2="44.0071" y2="155.601" gradientUnits="userSpaceOnUse">
<stop stop-color="#F5E906"/>
<stop offset="1" stop-color="#635F00"/>
</linearGradient>
<linearGradient id="paint5_linear_44_38371" x1="65.9308" y1="162.488" x2="65.322" y2="163.87" gradientUnits="userSpaceOnUse">
<stop stop-color="#F5E906"/>
<stop offset="1" stop-color="#635F00"/>
</linearGradient>
<linearGradient id="paint6_linear_44_38371" x1="65.1471" y1="161.752" x2="63.7327" y2="162.863" gradientUnits="userSpaceOnUse">
<stop stop-color="#F5E906"/>
<stop offset="1" stop-color="#635F00"/>
</linearGradient>
<linearGradient id="paint7_linear_44_38371" x1="75.585" y1="70.1152" x2="55.0612" y2="85.064" gradientUnits="userSpaceOnUse">
<stop stop-color="#F5E906"/>
<stop offset="1" stop-color="#635F00"/>
</linearGradient>
<linearGradient id="paint8_linear_44_38371" x1="79.5278" y1="72.6484" x2="70.0489" y2="78.5296" gradientUnits="userSpaceOnUse">
<stop stop-color="#F5E906"/>
<stop offset="1" stop-color="#635F00"/>
</linearGradient>
<linearGradient id="paint9_linear_44_38371" x1="48.1718" y1="147.512" x2="44.037" y2="153.221" gradientUnits="userSpaceOnUse">
<stop stop-color="#F5E906"/>
<stop offset="1" stop-color="#635F00"/>
</linearGradient>
<linearGradient id="paint10_linear_44_38371" x1="66.4199" y1="156.344" x2="64.4186" y2="161.16" gradientUnits="userSpaceOnUse">
<stop stop-color="#F5E906"/>
<stop offset="1" stop-color="#635F00"/>
</linearGradient>
<linearGradient id="paint11_linear_44_38371" x1="72.292" y1="89.002" x2="70.8341" y2="95.0803" gradientUnits="userSpaceOnUse">
<stop stop-color="#F5E906"/>
<stop offset="1" stop-color="#635F00"/>
</linearGradient>
</defs>
</svg>
