<svg width="14" height="16" viewBox="0 0 14 16" fill="none" xmlns="http://www.w3.org/2000/svg">
<path d="M11.781 12.9904L11.1813 12.5399L11.781 12.9904ZM12.4697 15.1967C12.7626 15.4896 13.2374 15.4896 13.5303 15.1967C13.8232 14.9038 13.8232 14.4289 13.5303 14.136L12.4697 15.1967ZM11.5686 13.235L11.0383 12.7046L11.5686 13.235ZM6.33333 15.4163C6.74755 15.4163 7.08333 15.0806 7.08333 14.6663C7.08333 14.2521 6.74755 13.9163 6.33333 13.9163V15.4163ZM11.5833 7.99967C11.5833 8.41389 11.9191 8.74967 12.3333 8.74967C12.7475 8.74967 13.0833 8.41389 13.0833 7.99967H11.5833ZM10.4901 1.50114L10.7386 0.793478V0.793478L10.4901 1.50114ZM12.1547 3.06777L12.8519 2.79146V2.79146L12.1547 3.06777ZM1.31262 4.36884L2.00987 4.64515V4.64515L1.31262 4.36884ZM4.22557 1.62724L4.47399 2.33491L4.47399 2.33491L4.22557 1.62724ZM2.13538 14.1345L1.70341 14.7476H1.70341L2.13538 14.1345ZM1.56513 13.5977L2.15211 13.1309H2.15211L1.56513 13.5977ZM0.25 7.99967C0.25 8.41389 0.585786 8.74967 1 8.74967C1.41421 8.74967 1.75 8.41389 1.75 7.99967H0.25ZM3.22222 5.77745V6.52745H3.22222L3.22222 5.77745ZM5.40658 4.95392L6.13103 5.14803L5.40658 4.95392ZM4.62091 5.73959L4.81502 6.46404H4.81502L4.62091 5.73959ZM7.66667 2.08301C8.08088 2.08301 8.41667 1.74722 8.41667 1.33301C8.41667 0.918794 8.08088 0.583008 7.66667 0.583008V2.08301ZM9.95238 13.1544C9.10423 13.1544 8.41667 12.4669 8.41667 11.6187H6.91667C6.91667 13.2953 8.2758 14.6544 9.95238 14.6544V13.1544ZM8.41667 11.6187C8.41667 10.7706 9.10423 10.083 9.95238 10.083V8.58301C8.2758 8.58301 6.91667 9.94214 6.91667 11.6187H8.41667ZM9.95238 10.083C10.8005 10.083 11.4881 10.7706 11.4881 11.6187H12.9881C12.9881 9.94214 11.629 8.58301 9.95238 8.58301V10.083ZM11.4881 11.6187C11.4881 11.9654 11.3741 12.2832 11.1813 12.5399L12.3806 13.4409C12.7619 12.9334 12.9881 12.3014 12.9881 11.6187H11.4881ZM13.5303 14.136L12.099 12.7046L11.0383 13.7653L12.4697 15.1967L13.5303 14.136ZM11.1813 12.5399C11.1376 12.5981 11.0898 12.6532 11.0383 12.7046L12.099 13.7653C12.2002 13.664 12.2943 13.5556 12.3806 13.4409L11.1813 12.5399ZM11.0383 12.7046C10.7596 12.9834 10.3767 13.1544 9.95238 13.1544V14.6544C10.7905 14.6544 11.5504 14.3138 12.099 13.7653L11.0383 12.7046ZM6.33333 13.9163H6.15152V15.4163H6.33333V13.9163ZM1.75 9.81786V8.12089H0.25V9.81786H1.75ZM11.5833 5.2118V7.99967H13.0833V5.2118H11.5833ZM8.21212 2.08301C9.47497 2.08301 9.91387 2.09371 10.2417 2.20881L10.7386 0.793478C10.1085 0.572301 9.34803 0.583008 8.21212 0.583008V2.08301ZM13.0833 5.2118C13.0833 4.65727 13.0837 4.20511 13.0594 3.83616C13.0346 3.4605 12.9819 3.1195 12.8519 2.79146L11.4574 3.34408C11.5061 3.46682 11.5427 3.63342 11.5626 3.93488C11.583 4.24303 11.5833 4.63749 11.5833 5.2118H13.0833ZM10.2417 2.20881C10.8176 2.41097 11.2545 2.83195 11.4574 3.34408L12.8519 2.79146C12.4805 1.8542 11.7026 1.13191 10.7386 0.793478L10.2417 2.20881ZM1.75 8.12089C1.75 7.12327 1.75038 6.41133 1.78745 5.84926C1.82408 5.29389 1.89424 4.93694 2.00987 4.64515L0.615379 4.09253C0.418387 4.58962 0.332229 5.12097 0.290704 5.75054C0.249621 6.37341 0.25 7.14305 0.25 8.12089H1.75ZM8.21212 0.583008C6.17668 0.583008 4.96644 0.572301 3.97715 0.919579L4.47399 2.33491C5.16107 2.09372 6.04974 2.08301 8.21212 2.08301V0.583008ZM2.00987 4.64515C2.42822 3.5895 3.32059 2.7398 4.47399 2.33491L3.97716 0.919579C2.43559 1.46073 1.2022 2.61175 0.615379 4.09253L2.00987 4.64515ZM6.15152 13.9163C5.04833 13.9163 4.27897 13.9154 3.68899 13.8539C3.11098 13.7937 2.79579 13.6823 2.56735 13.5213L1.70341 14.7476C2.2299 15.1185 2.83571 15.2731 3.5335 15.3458C4.21932 15.4173 5.08057 15.4163 6.15152 15.4163V13.9163ZM0.25 9.81786C0.25 10.8228 0.248787 11.642 0.32578 12.2963C0.404847 12.9683 0.574558 13.5572 0.978161 14.0646L2.15211 13.1309C1.99058 12.9278 1.87772 12.6498 1.8155 12.1211C1.75121 11.5747 1.75 10.8591 1.75 9.81786H0.25ZM2.56735 13.5213C2.4084 13.4094 2.26882 13.2776 2.15211 13.1309L0.978161 14.0646C1.18529 14.325 1.42976 14.5548 1.70341 14.7476L2.56735 13.5213ZM1.75 7.99967C1.75 7.18659 2.40914 6.52745 3.22222 6.52745V5.02745C1.58071 5.02745 0.25 6.35816 0.25 7.99967H1.75ZM4.68214 4.7598C4.64875 4.88442 4.55141 4.98176 4.4268 5.01515L4.81502 6.46404C5.45728 6.29194 5.95894 5.79029 6.13103 5.14803L4.68214 4.7598ZM7.66667 0.583008C6.02515 0.583008 4.69444 1.91372 4.69444 3.55523H6.19444C6.19444 2.74214 6.85358 2.08301 7.66667 2.08301V0.583008ZM4.69444 3.55523C4.69444 3.68551 4.70012 3.81715 4.7056 3.9351C4.71131 4.05831 4.7168 4.16673 4.71904 4.27476C4.72362 4.49528 4.71196 4.64851 4.68214 4.7598L6.13103 5.14803C6.21684 4.82777 6.22411 4.50359 6.21872 4.24362C6.21597 4.1114 6.20924 3.97881 6.20398 3.86558C6.19849 3.74709 6.19444 3.64688 6.19444 3.55523H4.69444ZM3.22222 6.52745C3.31387 6.52745 3.41409 6.53149 3.53257 6.53699C3.6458 6.54224 3.7784 6.54898 3.91061 6.55172C4.17058 6.55712 4.49476 6.54985 4.81502 6.46404L4.4268 5.01515C4.3155 5.04497 4.16227 5.05663 3.94175 5.05205C3.83372 5.0498 3.7253 5.04432 3.60209 5.0386C3.48414 5.03313 3.3525 5.02745 3.22222 5.02745L3.22222 6.52745Z" fill="#586261"/>
</svg>
