<svg width="16" height="16" viewBox="0 0 16 16" fill="none" xmlns="http://www.w3.org/2000/svg">
<path d="M11.083 2.65769C11.322 2.79596 11.6279 2.71428 11.7662 2.47525C11.9044 2.23622 11.8228 1.93036 11.5837 1.79209L11.083 2.65769ZM15.0234 6.56687C14.9684 6.29625 14.7045 6.1214 14.4339 6.17633C14.1633 6.23127 13.9884 6.49518 14.0433 6.76581L15.0234 6.56687ZM5.33337 7.83301C5.05723 7.83301 4.83337 8.05687 4.83337 8.33301C4.83337 8.60915 5.05723 8.83301 5.33337 8.83301V7.83301ZM7.66671 10.6663L7.23259 10.9144C7.32046 11.0682 7.48312 11.164 7.66021 11.1663C7.83731 11.1686 8.0024 11.077 8.09424 10.9256L7.66671 10.6663ZM14.8406 3.80178C15.0995 3.70572 15.2315 3.41797 15.1355 3.15908C15.0394 2.90018 14.7517 2.76818 14.4928 2.86423L14.8406 3.80178ZM8.00004 0.833008C4.042 0.833008 0.833374 4.04163 0.833374 7.99967H1.83337C1.83337 4.59392 4.59428 1.83301 8.00004 1.83301V0.833008ZM0.833374 7.99967C0.833374 11.9577 4.042 15.1663 8.00004 15.1663V14.1663C4.59428 14.1663 1.83337 11.4054 1.83337 7.99967H0.833374ZM8.00004 15.1663C11.9581 15.1663 15.1667 11.9577 15.1667 7.99967H14.1667C14.1667 11.4054 11.4058 14.1663 8.00004 14.1663V15.1663ZM11.5837 1.79209C10.5291 1.18201 9.30457 0.833008 8.00004 0.833008V1.83301C9.12409 1.83301 10.1765 2.1333 11.083 2.65769L11.5837 1.79209ZM15.1667 7.99967C15.1667 7.50946 15.1174 7.03024 15.0234 6.56687L14.0433 6.76581C14.1242 7.16407 14.1667 7.57665 14.1667 7.99967H15.1667ZM5.33337 8.33301C5.33337 8.83301 5.33281 8.83301 5.33225 8.83301C5.33206 8.83301 5.3315 8.833 5.33114 8.833C5.33041 8.833 5.32969 8.83299 5.32899 8.83299C5.32758 8.83298 5.32623 8.83296 5.32494 8.83293C5.32236 8.83289 5.32 8.83282 5.31787 8.83274C5.31361 8.83258 5.31026 8.83238 5.3078 8.8322C5.30287 8.83183 5.30155 8.83154 5.30373 8.83187C5.30799 8.83252 5.32671 8.8357 5.35886 8.84593C5.42258 8.8662 5.544 8.91577 5.71331 9.03429C6.05339 9.27235 6.5913 9.79216 7.23259 10.9144L8.10083 10.4183C7.40878 9.20719 6.78003 8.56034 6.28677 8.21506C6.03942 8.04191 5.8275 7.94564 5.66206 7.893C5.57962 7.86677 5.5098 7.85172 5.45417 7.84326C5.4264 7.83903 5.40229 7.83646 5.38206 7.83496C5.37195 7.83421 5.36282 7.83372 5.35469 7.83342C5.35063 7.83327 5.34682 7.83317 5.34326 7.8331C5.34149 7.83307 5.33977 7.83305 5.33813 7.83303C5.3373 7.83302 5.33649 7.83302 5.3357 7.83301C5.33531 7.83301 5.33472 7.83301 5.33453 7.83301C5.33395 7.83301 5.33337 7.83301 5.33337 8.33301ZM7.66671 10.6663C8.09424 10.9256 8.09421 10.9256 8.0942 10.9257C8.09422 10.9256 8.09422 10.9256 8.09425 10.9256C8.09431 10.9255 8.09443 10.9253 8.0946 10.925C8.09495 10.9244 8.09552 10.9235 8.09631 10.9222C8.09789 10.9196 8.10036 10.9156 8.1037 10.9101C8.11037 10.8992 8.12053 10.8827 8.13403 10.861C8.16105 10.8174 8.20148 10.7527 8.25431 10.6696C8.35999 10.5034 8.51519 10.2637 8.71188 9.97178C9.10561 9.38743 9.66387 8.59665 10.3226 7.76947C10.9822 6.94107 11.7365 6.08394 12.5215 5.36266C13.3122 4.63624 14.1053 4.0746 14.8406 3.80178L14.4928 2.86423C13.581 3.20253 12.6756 3.86311 11.845 4.62627C11.0087 5.39457 10.2188 6.29439 9.54028 7.14654C8.86072 7.99992 8.28663 8.81331 7.88257 9.41299C7.68036 9.71309 7.5203 9.96032 7.41045 10.1331C7.35551 10.2195 7.3131 10.2873 7.28423 10.3339C7.26979 10.3571 7.25873 10.3751 7.25118 10.3874C7.24741 10.3936 7.24451 10.3983 7.2425 10.4016C7.2415 10.4033 7.24072 10.4045 7.24016 10.4055C7.23989 10.4059 7.23967 10.4063 7.2395 10.4065C7.23942 10.4067 7.23934 10.4068 7.2393 10.4069C7.23923 10.407 7.23918 10.4071 7.66671 10.6663Z" fill="white"/>
</svg>
