<svg width="14" height="16" viewBox="0 0 14 16" fill="none" xmlns="http://www.w3.org/2000/svg">
<path d="M11.5868 10.3497L10.8383 10.3035L11.5868 10.3497ZM12.7486 3.71262C12.7741 3.29919 12.4597 2.94333 12.0463 2.91777C11.6329 2.89221 11.277 3.20664 11.2514 3.62007L12.7486 3.71262ZM2.74864 3.62115C2.72368 3.20769 2.36827 2.89274 1.95481 2.9177C1.54134 2.94266 1.2264 3.29808 1.25136 3.71154L2.74864 3.62115ZM2.40307 10.3431L3.15171 10.2979L2.40307 10.3431ZM11.0005 13.5249L11.6157 13.9539L11.6157 13.9539L11.0005 13.5249ZM10.2005 14.277L9.81027 13.6365H9.81027L10.2005 14.277ZM2.98579 13.5229L3.60139 13.0945H3.60139L2.98579 13.5229ZM3.78604 14.2763L4.17657 13.636L3.78604 14.2763ZM1 2.91634C0.585786 2.91634 0.25 3.25213 0.25 3.66634C0.25 4.08055 0.585786 4.41634 1 4.41634V2.91634ZM13 4.41634C13.4142 4.41634 13.75 4.08055 13.75 3.66634C13.75 3.25213 13.4142 2.91634 13 2.91634V4.41634ZM9.2487 2.72749L8.57382 3.05465V3.05465L9.2487 2.72749ZM4.7724 2.78051L5.45485 3.09159L4.7724 2.78051ZM5.4782 1.60845L5.93471 2.20351L5.93471 2.20351L5.4782 1.60845ZM5.66379 1.48909L5.31167 0.826882L5.31167 0.826883L5.66379 1.48909ZM8.53448 1.59755L8.98287 0.996348L8.98287 0.996345L8.53448 1.59755ZM8.35135 1.48281L8.00596 2.14855L8.00596 2.14855L8.35135 1.48281ZM4.58333 10.9997C4.58333 11.4139 4.91912 11.7497 5.33333 11.7497C5.74755 11.7497 6.08333 11.4139 6.08333 10.9997H4.58333ZM6.08333 6.99967C6.08333 6.58546 5.74755 6.24967 5.33333 6.24967C4.91912 6.24967 4.58333 6.58546 4.58333 6.99967H6.08333ZM7.91667 10.9997C7.91667 11.4139 8.25245 11.7497 8.66667 11.7497C9.08088 11.7497 9.41667 11.4139 9.41667 10.9997H7.91667ZM9.41667 6.99967C9.41667 6.58546 9.08088 6.24967 8.66667 6.24967C8.25245 6.24967 7.91667 6.58546 7.91667 6.99967H9.41667ZM12.3354 10.396L12.7486 3.71262L11.2514 3.62007L10.8383 10.3035L12.3354 10.396ZM1.25136 3.71154L1.65443 10.3883L3.15171 10.2979L2.74864 3.62115L1.25136 3.71154ZM10.8383 10.3035C10.7846 11.1718 10.7468 11.7701 10.6739 12.23C10.6028 12.6778 10.5083 12.9195 10.3853 13.0959L11.6157 13.9539C11.9207 13.5165 12.0666 13.0244 12.1553 12.465C12.2422 11.9176 12.2835 11.2352 12.3354 10.396L10.8383 10.3035ZM6.99516 15.4163C7.836 15.4163 8.51963 15.4171 9.07131 15.3643C9.63511 15.3102 10.1353 15.195 10.5907 14.9175L9.81027 13.6365C9.62661 13.7484 9.37953 13.8278 8.92815 13.8711C8.46464 13.9155 7.86516 13.9163 6.99516 13.9163V15.4163ZM10.3853 13.0959C10.2332 13.3141 10.0374 13.4982 9.81027 13.6365L10.5907 14.9175C10.9955 14.6709 11.3446 14.3427 11.6157 13.9539L10.3853 13.0959ZM1.65443 10.3883C1.70517 11.2287 1.74562 11.912 1.83179 12.4602C1.91986 13.0203 2.06526 13.5132 2.37019 13.9513L3.60139 13.0945C3.47844 12.9178 3.38411 12.6757 3.31359 12.2272C3.24118 11.7666 3.2042 11.1675 3.15171 10.2979L1.65443 10.3883ZM6.99516 13.9163C6.12403 13.9163 5.52373 13.9155 5.05963 13.871C4.60766 13.8277 4.36033 13.7481 4.17657 13.636L3.3955 14.9166C3.85124 15.1946 4.35194 15.31 4.91638 15.3642C5.4687 15.4171 6.15321 15.4163 6.99516 15.4163V13.9163ZM2.37019 13.9513C2.64122 14.3408 2.99041 14.6695 3.3955 14.9166L4.17657 13.636C3.94932 13.4974 3.75344 13.313 3.60139 13.0945L2.37019 13.9513ZM1 4.41634H4.36862V2.91634H1V4.41634ZM4.36862 4.41634H9.70382V2.91634H4.36862V4.41634ZM9.70382 4.41634H13V2.91634H9.70382V4.41634ZM8.57382 3.05465L9.02893 3.9935L10.3787 3.33918L9.92359 2.40034L8.57382 3.05465ZM4.08996 2.46943L3.68617 3.35526L5.05106 3.97742L5.45485 3.09159L4.08996 2.46943ZM5.45485 3.09159C5.60778 2.7561 5.70248 2.55007 5.78832 2.39961C5.86711 2.26153 5.9105 2.22208 5.93471 2.20351L5.02169 1.01339C4.78212 1.19718 4.61996 1.42053 4.48546 1.65627C4.35802 1.87964 4.23171 2.15846 4.08996 2.46943L5.45485 3.09159ZM7.02302 0.583008C6.68126 0.583008 6.37516 0.582291 6.11906 0.605606C5.84876 0.630213 5.57827 0.685125 5.31167 0.826882L6.0159 2.15129C6.04284 2.13697 6.09673 2.11384 6.25505 2.09943C6.42756 2.08372 6.65431 2.08301 7.02302 2.08301V0.583008ZM5.93471 2.20351C5.96028 2.1839 5.98744 2.16643 6.0159 2.15129L5.31167 0.826883C5.21003 0.880932 5.11303 0.943315 5.02169 1.01339L5.93471 2.20351ZM9.92359 2.40034C9.77819 2.1004 9.64845 1.83117 9.51906 1.6156C9.38245 1.388 9.21954 1.17287 8.98287 0.996348L8.08608 2.19874C8.11016 2.2167 8.15321 2.25471 8.23294 2.38756C8.3199 2.53243 8.4169 2.73094 8.57382 3.05465L9.92359 2.40034ZM7.02302 2.08301C7.38276 2.08301 7.6037 2.0837 7.77199 2.09875C7.92631 2.11255 7.9793 2.13471 8.00596 2.14855L8.69674 0.817071C8.43466 0.681104 8.17001 0.628362 7.90562 0.604715C7.65519 0.582317 7.35634 0.583008 7.02302 0.583008V2.08301ZM8.98287 0.996345C8.8925 0.928947 8.79681 0.868991 8.69674 0.817071L8.00596 2.14855C8.03398 2.16308 8.06077 2.17987 8.08608 2.19874L8.98287 0.996345ZM6.08333 10.9997L6.08333 6.99967H4.58333L4.58333 10.9997H6.08333ZM9.41667 10.9997V6.99967H7.91667V10.9997H9.41667Z" fill="#FC0305"/>
</svg>
