<svg width="201" height="200" viewBox="0 0 201 200" fill="none" xmlns="http://www.w3.org/2000/svg">
<path d="M109.7 59.4798C92.9758 64.9118 79.5318 37.1278 64.0078 34.0878C46.4998 30.6598 35.6678 43.9999 34.3598 60.6278C31.6158 95.4278 63.8718 131.348 96.4878 138.112C131.08 145.288 158.336 111.78 159.884 79.1598C160.508 66.0038 157.128 43.7598 142.404 38.4358C121.392 30.8358 124.628 54.6238 109.7 59.4798Z" fill="#216745"/>
<path opacity="0.9" d="M109.7 59.4798C92.9758 64.9118 79.5318 37.1278 64.0078 34.0878C46.4998 30.6598 35.6678 43.9999 34.3598 60.6278C31.6158 95.4278 63.8718 131.348 96.4878 138.112C131.08 145.288 158.336 111.78 159.884 79.1598C160.508 66.0038 157.128 43.7598 142.404 38.4358C121.392 30.8358 124.628 54.6238 109.7 59.4798Z" fill="white"/>
<path d="M100.5 171.025C143.333 171.025 178.056 168.997 178.056 166.497C178.056 163.996 143.333 161.969 100.5 161.969C57.6669 161.969 22.9438 163.996 22.9438 166.497C22.9438 168.997 57.6669 171.025 100.5 171.025Z" fill="#F5F5F5"/>
<path d="M130.6 84.9117C130.3 87.2477 129.972 89.5957 129.624 91.9317L128.58 99.0357C128.419 99.8989 128.074 100.717 127.568 101.436C127.106 102.08 126.549 102.651 125.916 103.128C124.801 103.941 123.561 104.568 122.244 104.984C121.035 105.38 119.795 105.672 118.536 105.856C117.916 105.952 117.3 106.016 116.68 106.068C116.06 106.12 115.46 106.152 114.8 106.152L114.596 103.896C115.672 103.648 116.812 103.36 117.88 103.004C118.939 102.675 119.973 102.274 120.976 101.804C121.889 101.396 122.736 100.857 123.492 100.204C123.787 99.9358 124.04 99.6242 124.24 99.2797C124.386 99.0073 124.475 98.7078 124.5 98.3997L124.616 96.7157C124.656 96.1157 124.712 95.5157 124.764 94.9237C124.868 93.7317 124.987 92.5437 125.12 91.3597C125.38 88.9837 125.688 86.6277 126.06 84.2637L130.6 84.9117Z" fill="#E4897B"/>
<path d="M128.012 81.3331C128.012 81.3331 124.452 90.4451 127.832 107.417H143.976C144.084 104.937 142.528 92.8531 144.92 81.1771C143.135 80.833 141.33 80.6058 139.516 80.4971C137.231 80.363 134.941 80.363 132.656 80.4971C131.088 80.6538 129.536 80.9333 128.012 81.3331Z" fill="url(#paint0_linear_42_35313)"/>
<path opacity="0.2" d="M128.012 81.3331C128.012 81.3331 124.452 90.4451 127.832 107.417H143.976C144.084 104.937 142.528 92.8531 144.92 81.1771C143.135 80.833 141.33 80.6058 139.516 80.4971C137.231 80.363 134.941 80.363 132.656 80.4971C131.088 80.6538 129.536 80.9333 128.012 81.3331Z" fill="black"/>
<path d="M131.596 83.3968C132.612 86.0968 130.176 95.1488 130.176 95.1488L123.472 91.7968C123.472 91.7968 123.788 87.2848 125.324 83.7968C126.86 80.3088 130.5 80.4368 131.596 83.3968Z" fill="url(#paint1_linear_42_35313)"/>
<path opacity="0.2" d="M131.596 83.3968C132.612 86.0968 130.176 95.1488 130.176 95.1488L123.472 91.7968C123.472 91.7968 123.788 87.2848 125.324 83.7968C126.86 80.3088 130.5 80.4368 131.596 83.3968Z" fill="black"/>
<path d="M147.116 162.777H144.096L141.744 155.789H144.764L147.116 162.777Z" fill="#E4897B"/>
<path d="M122.06 155.789L122.472 159.393H125.492L125.076 155.789H122.06Z" fill="#CE6F64"/>
<path d="M144.764 155.789H141.744L142.96 159.393H145.976L144.764 155.789Z" fill="#CE6F64"/>
<path d="M133.56 107.416C133.56 107.416 127.56 124.216 129.444 132.86C131.5 142.32 141.54 158.692 141.54 158.692H147.068C147.068 158.692 139.672 143.092 138.496 133.72C137.22 123.552 143.976 114.976 143.976 107.416H133.56Z" fill="url(#paint2_linear_42_35313)"/>
<path opacity="0.7" d="M133.56 107.416C133.56 107.416 127.56 124.216 129.444 132.86C131.5 142.32 141.54 158.692 141.54 158.692H147.068C147.068 158.692 139.672 143.092 138.496 133.72C137.22 123.552 143.976 114.976 143.976 107.416H133.56Z" fill="black"/>
<path d="M125.876 162.777H122.86L122.056 155.789H125.076L125.876 162.777Z" fill="#E4897B"/>
<path d="M127.832 107.416C127.832 107.416 116.068 123.724 116.396 132.924C116.736 142.496 121.34 158.692 121.34 158.692H126.452C126.452 158.692 124.36 143.056 124.584 133.656C124.832 123.408 138.444 115.32 138.444 107.416H127.832Z" fill="url(#paint3_linear_42_35313)"/>
<path opacity="0.7" d="M127.832 107.416C127.832 107.416 116.068 123.724 116.396 132.924C116.736 142.496 121.34 158.692 121.34 158.692H126.452C126.452 158.692 124.36 143.056 124.584 133.656C124.832 123.408 138.444 115.32 138.444 107.416H127.832Z" fill="black"/>
<path d="M143.7 162.424H147.38C147.44 162.424 147.498 162.444 147.545 162.482C147.592 162.52 147.624 162.573 147.636 162.632L148.232 165.312C148.246 165.377 148.246 165.445 148.23 165.51C148.215 165.576 148.185 165.636 148.143 165.688C148.1 165.74 148.047 165.782 147.986 165.81C147.925 165.839 147.859 165.853 147.792 165.852C146.592 165.832 145.744 165.76 144.252 165.76C143.336 165.76 141.452 165.856 140.18 165.856C138.908 165.856 138.748 164.604 139.268 164.492C141.592 163.98 142.468 163.292 143.212 162.612C143.346 162.491 143.52 162.424 143.7 162.424Z" fill="url(#paint4_linear_42_35313)"/>
<path d="M122.9 162.424H126.196C126.256 162.424 126.315 162.445 126.362 162.483C126.409 162.52 126.442 162.573 126.456 162.632L127.052 165.312C127.066 165.377 127.066 165.444 127.051 165.509C127.035 165.574 127.006 165.635 126.964 165.687C126.922 165.739 126.869 165.78 126.809 165.809C126.748 165.838 126.683 165.852 126.616 165.852C125.416 165.832 123.708 165.76 122.216 165.76C120.468 165.76 118.96 165.856 116.912 165.856C115.672 165.856 115.312 164.604 115.848 164.492C118.208 163.972 120.136 163.92 122.176 162.66C122.391 162.515 122.641 162.434 122.9 162.424Z" fill="url(#paint5_linear_42_35313)"/>
<path d="M116.2 103.621L112.908 103.841L114.448 107.373C115.066 107.356 115.663 107.141 116.15 106.76C116.637 106.379 116.99 105.853 117.156 105.257L116.2 103.621Z" fill="#E4897B"/>
<path d="M111.128 104.956L112.956 107.428L114.448 107.372L112.908 103.84L111.128 104.956Z" fill="#E4897B"/>
<path opacity="0.2" d="M141.628 86.7559C142.156 84.0919 143.184 84.5519 144.156 85.8639C143.739 89.3961 143.547 92.9513 143.58 96.5079C142.9 95.3799 140.748 91.2199 141.628 86.7559Z" fill="black"/>
<path d="M138.836 72.7676C138.404 74.9756 137.972 79.0196 139.516 80.4956C139.516 80.4956 138.912 82.7316 134.808 82.7316C130.3 82.7316 132.656 80.4956 132.656 80.4956C135.116 79.9076 135.056 78.0956 134.624 76.3636L138.836 72.7676Z" fill="#E4897B"/>
<path d="M137.12 74.2363L134.624 76.3643C134.73 76.7573 134.801 77.1588 134.836 77.5643C135.776 77.4283 137.068 76.3963 137.168 75.4123C137.223 75.0207 137.207 74.6222 137.12 74.2363Z" fill="#CE6F64"/>
<path d="M133.48 64.2918C131.908 64.6638 130.252 69.2318 131.964 70.4918C133.676 71.7518 136.452 63.5998 133.48 64.2918Z" fill="#252929"/>
<path d="M139.476 70.1613C138.6 73.0253 138.232 74.7453 136.404 75.8853C133.66 77.6013 130.404 75.4093 130.404 72.3413C130.404 69.5773 131.84 65.3613 134.964 64.8853C135.651 64.7797 136.354 64.8512 137.006 65.0931C137.658 65.335 138.237 65.7392 138.689 66.2675C139.141 66.7959 139.45 67.4308 139.588 68.1122C139.726 68.7936 139.687 69.4989 139.476 70.1613Z" fill="#E4897B"/>
<path d="M138.588 72.9606C136.904 73.2246 135.576 66.9607 140 66.4767C145.364 65.8687 141.3 72.5366 138.588 72.9606Z" fill="#252929"/>
<path d="M140.724 67.9644C138.608 68.0044 132.42 66.7364 131.62 63.3044C131.292 61.8964 133.728 60.0564 136.184 60.3324C132.94 61.7564 135.488 64.0324 138.928 63.7324C142.86 63.3844 143.58 67.9124 140.724 67.9644Z" fill="#252929"/>
<path d="M141.664 66.7687C141.664 66.7687 143.8 66.6127 143.264 68.5167C143.171 68.1118 142.975 67.7379 142.695 67.4315C142.414 67.1251 142.059 66.8967 141.664 66.7687Z" fill="#252929"/>
<path d="M141.092 66.7013C141.092 66.7013 142.928 67.8093 143.3 65.8613C143.034 66.178 142.692 66.4215 142.306 66.5685C141.919 66.7155 141.501 66.7613 141.092 66.7013Z" fill="#252929"/>
<path d="M140.02 73.6796C139.478 74.202 138.752 74.4894 138 74.4796C137.004 74.4596 136.8 73.4996 137.308 72.7076C137.772 71.9956 138.852 71.1436 139.736 71.5476C140.62 71.9516 140.672 73.0276 140.02 73.6796Z" fill="#E4897B"/>
<path d="M140.56 158.812H147.788V156.868L139.708 156.744L140.56 158.812Z" fill="url(#paint6_linear_42_35313)"/>
<path d="M120.2 158.812H127.424V156.844L119.348 156.744L120.2 158.812Z" fill="url(#paint7_linear_42_35313)"/>
<path d="M134.872 69.9161C134.816 70.1521 134.644 70.3161 134.472 70.2761C134.3 70.2361 134.24 70.0161 134.296 69.7801C134.352 69.5441 134.524 69.3801 134.696 69.4201C134.868 69.4601 134.928 69.6801 134.872 69.9161Z" fill="url(#paint8_linear_42_35313)"/>
<path d="M132.196 69.2724C132.14 69.5124 131.968 69.6724 131.796 69.6364C131.624 69.6004 131.564 69.3764 131.62 69.1404C131.676 68.9044 131.848 68.7404 132.02 68.7764C132.192 68.8124 132.252 69.0364 132.196 69.2724Z" fill="url(#paint9_linear_42_35313)"/>
<path d="M133.02 69.5996C132.563 70.2551 132.018 70.8447 131.4 71.3516C131.534 71.506 131.7 71.6294 131.886 71.713C132.073 71.7966 132.276 71.8384 132.48 71.8356L133.02 69.5996Z" fill="#DE5753"/>
<path d="M133.552 72.7171C133.371 72.7164 133.191 72.6949 133.016 72.6531C132.997 72.6484 132.981 72.6366 132.97 72.6203C132.96 72.6039 132.956 72.5842 132.96 72.5651C132.962 72.5559 132.966 72.5473 132.972 72.5397C132.978 72.532 132.985 72.5256 132.993 72.5208C133.001 72.516 133.01 72.5128 133.02 72.5115C133.029 72.5102 133.039 72.5107 133.048 72.5131C133.341 72.5906 133.648 72.5976 133.944 72.5337C134.24 72.4697 134.517 72.3366 134.752 72.1451C134.766 72.1319 134.784 72.1246 134.803 72.125C134.822 72.1254 134.841 72.1333 134.854 72.1471C134.867 72.1609 134.874 72.1794 134.874 72.1985C134.874 72.2177 134.866 72.2359 134.852 72.2491C134.489 72.5568 134.027 72.723 133.552 72.7171Z" fill="url(#paint10_linear_42_35313)"/>
<path d="M135.916 69.2528C135.889 69.2514 135.862 69.2425 135.84 69.2269C135.817 69.2114 135.799 69.1899 135.788 69.1648C135.719 68.9962 135.61 68.8467 135.471 68.7291C135.331 68.6114 135.166 68.529 134.988 68.4888C134.97 68.4859 134.952 68.4793 134.936 68.4694C134.92 68.4596 134.906 68.4466 134.895 68.4313C134.885 68.416 134.877 68.3987 134.873 68.3804C134.869 68.3621 134.869 68.3432 134.872 68.3248C134.878 68.2872 134.898 68.2534 134.929 68.2309C134.96 68.2084 134.998 68.199 135.036 68.2048C135.257 68.2555 135.462 68.3587 135.635 68.5056C135.808 68.6525 135.943 68.8388 136.028 69.0488C136.036 69.0661 136.041 69.0848 136.041 69.1039C136.042 69.123 136.039 69.142 136.032 69.1598C136.025 69.1777 136.015 69.1941 136.002 69.208C135.989 69.2218 135.973 69.233 135.956 69.2408C135.943 69.2465 135.93 69.2505 135.916 69.2528Z" fill="url(#paint11_linear_42_35313)"/>
<path d="M131.3 68.0772C131.267 68.0783 131.234 68.0669 131.208 68.0452C131.179 68.0211 131.161 67.9867 131.157 67.9493C131.154 67.9119 131.165 67.8746 131.188 67.8452C131.329 67.6641 131.512 67.5199 131.721 67.4252C131.93 67.3304 132.159 67.2879 132.388 67.3012C132.426 67.3062 132.46 67.3258 132.483 67.3558C132.506 67.3857 132.517 67.4236 132.512 67.4612C132.51 67.4797 132.505 67.4975 132.496 67.5138C132.487 67.53 132.475 67.5443 132.46 67.5558C132.446 67.5674 132.429 67.5759 132.411 67.581C132.393 67.586 132.375 67.5875 132.356 67.5852C132.176 67.5793 131.998 67.616 131.835 67.6925C131.672 67.769 131.53 67.8831 131.42 68.0252C131.406 68.0433 131.388 68.0575 131.367 68.0666C131.346 68.0757 131.323 68.0793 131.3 68.0772Z" fill="url(#paint12_linear_42_35313)"/>
<path d="M142.696 162.952C142.486 162.971 142.275 162.917 142.1 162.8C142.046 162.754 142.004 162.695 141.978 162.629C141.952 162.563 141.943 162.491 141.952 162.42C141.952 162.379 141.963 162.339 141.984 162.304C142.005 162.268 142.035 162.24 142.072 162.22C142.404 162.048 143.38 162.644 143.492 162.716C143.504 162.724 143.513 162.735 143.519 162.748C143.524 162.76 143.526 162.775 143.524 162.788C143.521 162.802 143.514 162.815 143.504 162.825C143.494 162.835 143.482 162.842 143.468 162.844C143.215 162.91 142.956 162.946 142.696 162.952ZM142.248 162.328C142.216 162.326 142.184 162.333 142.156 162.348C142.141 162.356 142.128 162.367 142.12 162.381C142.111 162.395 142.107 162.412 142.108 162.428C142.101 162.477 142.107 162.526 142.124 162.571C142.142 162.617 142.171 162.657 142.208 162.688C142.543 162.844 142.926 162.864 143.276 162.744C142.963 162.541 142.614 162.4 142.248 162.328Z" fill="url(#paint13_linear_42_35313)"/>
<path d="M143.468 162.849C143.458 162.853 143.446 162.853 143.436 162.849C143.12 162.681 142.52 162.021 142.584 161.685C142.592 161.632 142.62 161.584 142.661 161.55C142.702 161.515 142.754 161.496 142.808 161.497C142.863 161.49 142.918 161.495 142.971 161.511C143.025 161.527 143.074 161.553 143.116 161.589C143.464 161.873 143.516 162.745 143.54 162.789C143.54 162.802 143.537 162.815 143.532 162.827C143.526 162.839 143.518 162.849 143.508 162.857C143.494 162.859 143.48 162.856 143.468 162.849ZM142.86 161.625H142.828C142.732 161.625 142.728 161.681 142.724 161.697C142.684 161.897 143.068 162.397 143.38 162.633C143.358 162.289 143.234 161.959 143.024 161.685C142.978 161.647 142.92 161.626 142.86 161.625Z" fill="url(#paint14_linear_42_35313)"/>
<path d="M121.628 162.953C121.369 162.977 121.11 162.912 120.892 162.769C120.844 162.726 120.806 162.672 120.783 162.612C120.76 162.551 120.752 162.486 120.76 162.421C120.763 162.382 120.774 162.344 120.794 162.311C120.815 162.277 120.843 162.249 120.876 162.229C121.244 162.025 122.456 162.629 122.596 162.713C122.609 162.72 122.619 162.731 122.625 162.744C122.632 162.757 122.634 162.771 122.632 162.785C122.631 162.8 122.624 162.814 122.614 162.825C122.604 162.836 122.591 162.843 122.576 162.845C122.264 162.911 121.947 162.947 121.628 162.953ZM121.08 162.329C121.035 162.326 120.989 162.336 120.948 162.357C120.934 162.365 120.922 162.375 120.914 162.389C120.905 162.402 120.901 162.418 120.9 162.433C120.896 162.476 120.902 162.518 120.917 162.558C120.933 162.597 120.957 162.633 120.988 162.661C121.176 162.825 121.672 162.853 122.336 162.745C121.944 162.536 121.52 162.395 121.08 162.329Z" fill="url(#paint15_linear_42_35313)"/>
<path d="M122.56 162.849H122.532C122.168 162.685 121.448 162.049 121.5 161.693C121.5 161.613 121.572 161.513 121.768 161.493C121.84 161.483 121.912 161.489 121.981 161.51C122.05 161.531 122.114 161.566 122.168 161.613C122.568 161.929 122.632 162.741 122.636 162.777C122.638 162.789 122.637 162.801 122.632 162.813C122.627 162.824 122.619 162.834 122.608 162.841C122.593 162.848 122.577 162.851 122.56 162.849ZM121.824 161.625H121.784C121.652 161.625 121.644 161.689 121.644 161.705C121.608 161.913 122.1 162.425 122.472 162.649C122.438 162.304 122.298 161.979 122.072 161.717C122.004 161.656 121.915 161.623 121.824 161.625Z" fill="url(#paint16_linear_42_35313)"/>
<path d="M122.376 84.5806C123.067 84.0965 123.847 83.7537 124.671 83.572C125.495 83.3903 126.347 83.3734 127.177 83.5221C128.007 83.6708 128.8 83.9822 129.51 84.4385C130.22 84.8947 130.832 85.4868 131.312 86.1806C132.709 85.2073 134.436 84.8288 136.112 85.1285C137.788 85.4282 139.277 86.3815 140.25 87.7786C141.224 89.1758 141.602 90.9024 141.302 92.5786C141.003 94.2548 140.049 95.7433 138.652 96.7166L128.1 104.057L120.764 93.5166C120.281 92.825 119.939 92.0445 119.758 91.2201C119.577 90.3958 119.561 89.5438 119.711 88.7132C119.861 87.8827 120.173 87.09 120.631 86.3807C121.088 85.6715 121.681 85.0597 122.376 84.5806Z" fill="url(#paint17_linear_42_35313)"/>
<path opacity="0.3" d="M122.376 84.5806C123.067 84.0965 123.847 83.7537 124.671 83.572C125.495 83.3903 126.347 83.3734 127.177 83.5221C128.007 83.6708 128.8 83.9822 129.51 84.4385C130.22 84.8947 130.832 85.4868 131.312 86.1806C132.709 85.2073 134.436 84.8288 136.112 85.1285C137.788 85.4282 139.277 86.3815 140.25 87.7786C141.224 89.1758 141.602 90.9024 141.302 92.5786C141.003 94.2548 140.049 95.7433 138.652 96.7166L128.1 104.057L120.764 93.5166C120.281 92.825 119.939 92.0445 119.758 91.2201C119.577 90.3958 119.561 89.5438 119.711 88.7132C119.861 87.8827 120.173 87.09 120.631 86.3807C121.088 85.6715 121.681 85.0597 122.376 84.5806Z" fill="white"/>
<path d="M108.388 95.4332C108.687 94.0754 109.512 92.8916 110.683 92.1416C111.853 91.3917 113.274 91.1369 114.632 91.4332C114.955 90.1021 115.786 88.9502 116.947 88.2238C118.109 87.4974 119.508 87.2543 120.846 87.5464C122.185 87.8385 123.356 88.6427 124.109 89.7869C124.862 90.9311 125.137 92.3246 124.876 93.6692L122.64 103.913L112.396 101.677C111.723 101.531 111.085 101.253 110.519 100.86C109.953 100.467 109.47 99.9658 109.098 99.3859C108.726 98.806 108.472 98.1584 108.35 97.4802C108.228 96.802 108.241 96.1064 108.388 95.4332Z" fill="url(#paint18_linear_42_35313)"/>
<path opacity="0.5" d="M108.388 95.4332C108.687 94.0754 109.512 92.8916 110.683 92.1416C111.853 91.3917 113.274 91.1369 114.632 91.4332C114.955 90.1021 115.786 88.9502 116.947 88.2238C118.109 87.4974 119.508 87.2543 120.846 87.5464C122.185 87.8385 123.356 88.6427 124.109 89.7869C124.862 90.9311 125.137 92.3246 124.876 93.6692L122.64 103.913L112.396 101.677C111.723 101.531 111.085 101.253 110.519 100.86C109.953 100.467 109.47 99.9658 109.098 99.3859C108.726 98.806 108.472 98.1584 108.35 97.4802C108.228 96.802 108.241 96.1064 108.388 95.4332Z" fill="white"/>
<path d="M114.704 99.1477C116.006 97.2044 118.026 95.8576 120.32 95.403C122.615 94.9485 124.996 95.4235 126.94 96.7237C127.575 95.7379 128.399 94.8885 129.366 94.225C130.332 93.5615 131.421 93.0972 132.569 92.8593C133.717 92.6215 134.901 92.6147 136.052 92.8395C137.202 93.0643 138.297 93.5161 139.271 94.1686C140.245 94.821 141.079 95.661 141.725 96.6395C142.37 97.618 142.815 98.7153 143.032 99.8674C143.248 101.02 143.234 102.203 142.988 103.35C142.742 104.496 142.27 105.582 141.6 106.544L131.784 121.2L117.124 111.38C116.16 110.737 115.333 109.91 114.689 108.947C114.046 107.984 113.599 106.903 113.374 105.766C113.149 104.63 113.151 103.46 113.379 102.324C113.607 101.189 114.058 100.109 114.704 99.1477Z" fill="url(#paint19_linear_42_35313)"/>
<path opacity="0.7" d="M114.704 99.1477C116.006 97.2044 118.026 95.8576 120.32 95.403C122.615 94.9485 124.996 95.4235 126.94 96.7237C127.575 95.7379 128.399 94.8885 129.366 94.225C130.332 93.5615 131.421 93.0972 132.569 92.8593C133.717 92.6215 134.901 92.6147 136.052 92.8395C137.202 93.0643 138.297 93.5161 139.271 94.1686C140.245 94.821 141.079 95.661 141.725 96.6395C142.37 97.618 142.815 98.7153 143.032 99.8674C143.248 101.02 143.234 102.203 142.988 103.35C142.742 104.496 142.27 105.582 141.6 106.544L131.784 121.2L117.124 111.38C116.16 110.737 115.333 109.91 114.689 108.947C114.046 107.984 113.599 106.903 113.374 105.766C113.149 104.63 113.151 103.46 113.379 102.324C113.607 101.189 114.058 100.109 114.704 99.1477Z" fill="white"/>
<path d="M146.068 83.5254C146.332 84.0854 146.548 84.5814 146.756 85.1254C146.964 85.6694 147.156 86.1734 147.364 86.7254C147.764 87.7854 148.096 88.8614 148.396 89.9614C148.707 91.0665 148.962 92.1866 149.16 93.3174L149.304 94.1774L149.408 95.0534C149.448 95.3454 149.464 95.6454 149.484 95.9414L149.516 96.3894V96.5014V96.6854C149.516 96.8294 149.516 96.9534 149.516 97.0854C149.438 97.872 149.21 98.6364 148.844 99.3374C148.562 99.9016 148.241 100.446 147.884 100.965C147.224 101.917 146.501 102.823 145.72 103.677C144.214 105.332 142.583 106.867 140.84 108.269L139.24 106.669C140.548 105.001 141.848 103.277 143.028 101.565C143.606 100.732 144.14 99.8698 144.628 98.9814C144.848 98.5818 145.041 98.1675 145.204 97.7414C145.323 97.4693 145.391 97.1778 145.404 96.8814C145.404 96.8614 145.404 96.8814 145.404 96.8814C145.404 96.9014 145.404 96.9054 145.404 96.8814V96.7894L145.348 96.4294C145.312 96.1854 145.28 95.9494 145.224 95.7014L145.08 94.9734L144.908 94.2374C144.668 93.2574 144.388 92.2734 144.072 91.2934C143.756 90.3134 143.412 89.3334 143.048 88.3574C142.872 87.8694 142.684 87.3854 142.492 86.9014L141.92 85.4934L146.068 83.5254Z" fill="#E4897B"/>
<path d="M145.548 81.3766C148.24 82.4126 150.172 92.2606 150.172 92.2606L143.772 94.7846C143.772 94.7846 141.624 89.8366 140.904 86.1766C140.132 82.3246 142.5 80.2006 145.548 81.3766Z" fill="url(#paint20_linear_42_35313)"/>
<path opacity="0.2" d="M145.548 81.3766C148.24 82.4126 150.172 92.2606 150.172 92.2606L143.772 94.7846C143.772 94.7846 141.624 89.8366 140.904 86.1766C140.132 82.3246 142.5 80.2006 145.548 81.3766Z" fill="black"/>
<path d="M139.94 106.221L136.98 107.021L139.432 109.993C139.432 109.993 141.804 108.765 141.292 107.433L139.94 106.221Z" fill="#E4897B"/>
<path d="M134.836 109.48L136.98 111.808L139.432 109.98L136.98 107.008L134.836 109.48Z" fill="#E4897B"/>
<path d="M77.8759 68.9481C77.8759 68.9481 79.4399 69.4961 76.3079 88.7401H62.9879C63.2119 83.3201 63.2199 79.9761 60.6279 68.8521C62.4926 68.4667 64.383 68.2181 66.2839 68.1081C68.2974 67.964 70.3185 67.964 72.3319 68.1081C74.9319 68.3441 77.8759 68.9481 77.8759 68.9481Z" fill="url(#paint21_linear_42_35313)"/>
<path opacity="0.6" d="M77.8759 68.9481C77.8759 68.9481 79.4399 69.4961 76.3079 88.7401H62.9879C63.2119 83.3201 63.2199 79.9761 60.6279 68.8521C62.4926 68.4667 64.383 68.2181 66.2839 68.1081C68.2974 67.964 70.3185 67.964 72.3319 68.1081C74.9319 68.3441 77.8759 68.9481 77.8759 68.9481Z" fill="white"/>
<path d="M87.9923 79.9124C87.2843 80.5804 86.5443 81.2524 85.8043 81.8924C85.0643 82.5324 84.3083 83.1484 83.5483 83.6924C83.1812 83.958 82.7993 84.2024 82.4043 84.4244C82.1197 84.5927 81.8163 84.727 81.5003 84.8244L81.4483 84.6884L81.2003 84.0284C80.5774 82.2149 80.0894 80.3579 79.7403 78.4724C79.5483 77.5204 79.4163 76.5564 79.2723 75.5964C79.1283 74.6364 79.0243 73.6444 78.9403 72.7324L75.5923 72.9444C75.6563 74.0364 75.7843 75.0324 75.9243 76.0724C76.0643 77.1124 76.2603 78.1164 76.4803 79.1364C76.909 81.1885 77.5249 83.1969 78.3203 85.1364L78.6523 85.8724L78.7323 86.0524L78.7763 86.1444C78.7927 86.1854 78.8114 86.2255 78.8323 86.2644C78.947 86.4964 79.0908 86.7128 79.2603 86.9084C79.4626 87.1395 79.7052 87.3319 79.9763 87.4764C80.2438 87.615 80.5335 87.7057 80.8323 87.7444C81.2867 87.7932 81.7464 87.7441 82.1803 87.6004C82.788 87.3943 83.3611 87.0976 83.8803 86.7204C84.3316 86.4002 84.763 86.0529 85.1723 85.6804C86.6979 84.2574 88.0682 82.6765 89.2603 80.9644L87.9923 79.9124Z" fill="#E4897B"/>
<path d="M77.8759 68.9483C79.2279 69.2923 80.1719 74.8523 80.1719 74.8523L76.4479 77.3843C76.4479 77.3843 72.8759 71.7843 73.9159 70.2883C74.9999 68.7403 75.9039 68.4443 77.8759 68.9483Z" fill="url(#paint22_linear_42_35313)"/>
<path opacity="0.6" d="M77.8759 68.9483C79.2279 69.2923 80.1719 74.8523 80.1719 74.8523L76.4479 77.3843C76.4479 77.3843 72.8759 71.7843 73.9159 70.2883C74.9999 68.7403 75.9039 68.4443 77.8759 68.9483Z" fill="white"/>
<path d="M70.564 162.569H73.844L74.064 154.973H70.784L70.564 162.569Z" fill="#E4897B"/>
<path d="M73.956 162.188H70.272C70.2082 162.186 70.146 162.208 70.0973 162.249C70.0486 162.291 70.0168 162.348 70.008 162.412L69.588 165.324C69.5808 165.397 69.589 165.472 69.6122 165.542C69.6354 165.613 69.6731 165.677 69.7228 165.732C69.7725 165.787 69.8332 165.831 69.9009 165.862C69.9686 165.892 70.0419 165.907 70.116 165.908C71.4 165.908 72.02 165.812 73.64 165.812C74.636 165.812 76.696 165.916 78.076 165.916C79.456 165.916 79.524 164.552 78.952 164.432C76.38 163.876 75.352 163.116 74.504 162.388C74.3507 162.258 74.1566 162.187 73.956 162.188Z" fill="url(#paint23_linear_42_35313)"/>
<path d="M74.06 154.973L73.948 158.889H70.668L70.78 154.973H74.06Z" fill="#CE6F64"/>
<path d="M47.3441 142.229L49.8441 144.353L46.8921 146.985L44.3921 144.861L47.3441 142.229Z" fill="#CE6F64"/>
<path d="M75.188 162.76C74.8412 162.752 74.4958 162.713 74.156 162.644C74.1398 162.64 74.1251 162.632 74.1137 162.62C74.1023 162.608 74.0947 162.592 74.092 162.576C74.0899 162.56 74.0926 162.544 74.0998 162.53C74.1069 162.516 74.1181 162.504 74.132 162.496C74.28 162.42 75.588 161.752 75.992 161.972C76.029 161.994 76.0603 162.024 76.0833 162.06C76.1063 162.096 76.1202 162.137 76.124 162.18C76.1325 162.249 76.1242 162.32 76.0998 162.385C76.0754 162.45 76.0357 162.509 75.984 162.556C75.7495 162.712 75.4688 162.784 75.188 162.76ZM74.412 162.532C75.14 162.652 75.68 162.62 75.88 162.444C75.9136 162.412 75.9392 162.372 75.9545 162.329C75.9698 162.285 75.9744 162.238 75.968 162.192C75.9673 162.175 75.9622 162.158 75.9531 162.143C75.944 162.128 75.9312 162.116 75.916 162.108C75.7 162 74.948 162.272 74.412 162.532Z" fill="url(#paint24_linear_42_35313)"/>
<path d="M74.1683 162.645C74.154 162.65 74.1386 162.65 74.1243 162.645C74.1141 162.637 74.1058 162.627 74.1003 162.615C74.0947 162.603 74.092 162.59 74.0923 162.577C74.0923 162.541 74.1723 161.657 74.5843 161.313C74.6429 161.263 74.711 161.225 74.7846 161.203C74.8583 161.18 74.9357 161.173 75.0123 161.181C75.2283 161.181 75.2923 161.309 75.3043 161.397C75.3643 161.769 74.5923 162.477 74.2003 162.653L74.1683 162.645ZM74.9683 161.317C74.8697 161.316 74.7743 161.352 74.7003 161.417C74.459 161.703 74.3123 162.056 74.2803 162.429C74.6803 162.185 75.2043 161.629 75.1683 161.409C75.1683 161.409 75.1683 161.333 75.0123 161.317H74.9683Z" fill="url(#paint25_linear_42_35313)"/>
<path d="M76.3082 88.7403C76.3082 88.7403 78.9002 114 78.6802 124C78.4562 134.4 74.6442 158.128 74.6442 158.128H70.2122C70.2122 158.128 70.9122 135.008 70.5202 124.792C70.0922 113.656 66.5562 88.7363 66.5562 88.7363L76.3082 88.7403Z" fill="url(#paint26_linear_42_35313)"/>
<path opacity="0.5" d="M76.3082 88.7403C76.3082 88.7403 78.9002 114 78.6802 124C78.4562 134.4 74.6442 158.128 74.6442 158.128H70.2122C70.2122 158.128 70.9122 135.008 70.5202 124.792C70.0922 113.656 66.5562 88.7363 66.5562 88.7363L76.3082 88.7403Z" fill="black"/>
<path d="M87.9561 79.7043L89.7281 76.9043L90.7321 80.0843C90.7321 80.0843 89.2801 81.6083 87.9641 81.2443L87.9561 79.7043Z" fill="#E4897B"/>
<path d="M41.624 147.333L44.124 149.457L49.844 144.353L47.344 142.229L41.624 147.333Z" fill="#E4897B"/>
<path d="M44.8081 149.201L42.3841 146.429C42.344 146.379 42.287 146.347 42.2242 146.337C42.1613 146.327 42.0971 146.341 42.0441 146.377L39.5721 147.977C39.5116 148.019 39.4608 148.074 39.4229 148.138C39.385 148.202 39.3609 148.272 39.3523 148.346C39.3436 148.42 39.3505 148.494 39.3725 148.565C39.3945 148.636 39.4312 148.701 39.4801 148.757C40.3401 149.709 40.8041 150.125 41.8801 151.345C42.5361 152.097 43.4161 153.261 44.3201 154.297C45.2241 155.333 46.3201 154.493 46.0161 153.981C44.7401 151.681 45.0481 150.873 45.0241 149.745C45.019 149.543 44.9424 149.35 44.8081 149.201Z" fill="url(#paint27_linear_42_35313)"/>
<path d="M63.3239 58.9082C60.5239 62.0242 63.1199 69.0322 67.8799 66.2482C72.6399 63.4642 68.4559 60.8002 68.4559 60.8002L63.3239 58.9082Z" fill="#252929"/>
<path d="M63.5561 65.8553C63.5426 65.8551 63.5292 65.8522 63.5168 65.8467C63.5045 65.8412 63.4933 65.8333 63.4841 65.8233C62.2201 64.5673 61.5961 63.2473 61.6281 61.9033C61.6899 60.6776 62.2145 59.5211 63.0961 58.6673C63.1055 58.6576 63.1166 58.6499 63.129 58.6447C63.1414 58.6394 63.1547 58.6367 63.1681 58.6367C63.1816 58.6367 63.1949 58.6394 63.2072 58.6447C63.2196 58.6499 63.2308 58.6576 63.2401 58.6673C63.2498 58.6767 63.2575 58.6878 63.2628 58.7002C63.268 58.7126 63.2707 58.7259 63.2707 58.7393C63.2707 58.7528 63.268 58.7661 63.2628 58.7784C63.2575 58.7908 63.2498 58.802 63.2401 58.8113C62.4062 59.6327 61.9072 60.7347 61.8401 61.9033C61.8081 63.1873 62.4121 64.4553 63.6321 65.6713C63.6418 65.6806 63.6495 65.6918 63.6548 65.7042C63.66 65.7166 63.6627 65.7299 63.6627 65.7433C63.6627 65.7568 63.66 65.7701 63.6548 65.7824C63.6495 65.7948 63.6418 65.806 63.6321 65.8153C63.6232 65.8272 63.6118 65.837 63.5986 65.8439C63.5855 65.8508 63.571 65.8547 63.5561 65.8553Z" fill="#252929"/>
<path d="M69.8003 52.8366C69.4723 53.9046 71.9283 55.8246 71.3203 58.5286C70.9963 59.9726 71.6083 61.3286 72.2923 61.7286C72.9763 62.1286 75.5763 62.2966 76.1083 61.0606C75.227 59.7381 74.7033 58.2098 74.5883 56.6246C74.3603 53.6846 70.7083 49.8806 69.8003 52.8366Z" fill="#252929"/>
<path d="M70.1523 51.7843C69.0083 49.7843 59.6443 51.6243 62.9523 58.2843C66.2603 64.9443 70.1523 51.7843 70.1523 51.7843Z" fill="#252929"/>
<path d="M66.9003 61.2969C67.2803 63.2449 67.6643 66.8089 66.3003 68.0969C66.3003 68.0969 66.8323 70.0689 70.4483 70.0689C74.4243 70.0689 72.3483 68.0969 72.3483 68.0969C70.1803 67.5769 70.2363 65.9689 70.6123 64.4569L66.9003 61.2969Z" fill="#E4897B"/>
<path d="M68.396 62.5879L70.596 64.4639C70.5007 64.8161 70.4378 65.1763 70.408 65.5399C69.58 65.4199 68.44 64.5079 68.352 63.6399C68.3043 63.2894 68.3192 62.9332 68.396 62.5879Z" fill="#CE6F64"/>
<path d="M64.8322 57.7282C65.5962 60.8922 65.8522 62.2482 67.7562 63.6042C70.6242 65.6402 74.3442 64.0042 74.5562 60.6842C74.7362 57.6882 73.4562 53.0162 70.1002 52.2842C69.3581 52.117 68.5854 52.1435 67.8564 52.3612C67.1274 52.5788 66.4667 52.9803 65.9376 53.527C65.4086 54.0737 65.029 54.7473 64.8355 55.483C64.6419 56.2188 64.6408 56.9919 64.8322 57.7282Z" fill="#E4897B"/>
<path d="M69.828 158.288H75.028L75.412 156.628L69.584 156.428L69.828 158.288Z" fill="url(#paint28_linear_42_35313)"/>
<path opacity="0.2" d="M70.5639 95.0249C73.8359 101.609 71.2199 113.613 70.0639 118.077C69.4719 111.369 68.4639 103.173 67.6919 97.1489C68.1879 93.7409 69.0559 92.0009 70.5639 95.0249Z" fill="black"/>
<path d="M69.8402 57.7601C69.8882 58.0201 70.0642 58.2081 70.2402 58.1601C70.4162 58.1121 70.5122 57.8921 70.4682 57.6321C70.4242 57.3721 70.2442 57.1841 70.0682 57.2321C69.8922 57.2801 69.7962 57.5001 69.8402 57.7601Z" fill="url(#paint29_linear_42_35313)"/>
<path d="M72.7879 57.2401C72.8319 57.5001 73.0079 57.6881 73.1879 57.6401C73.3679 57.5921 73.4599 57.3761 73.4159 57.1161C73.3719 56.8561 73.1919 56.6681 73.0159 56.6961C72.8399 56.7241 72.7399 56.9801 72.7879 57.2401Z" fill="url(#paint30_linear_42_35313)"/>
<path d="M72.9399 56.7411L73.5319 56.4531C73.5319 56.4531 73.2999 56.9971 72.9399 56.7411Z" fill="url(#paint31_linear_42_35313)"/>
<path d="M72.1001 57.8242C72.4372 58.3781 72.849 58.8829 73.3241 59.3242C73.2075 59.4424 73.0666 59.534 72.9113 59.5927C72.7559 59.6514 72.5898 59.6758 72.4241 59.6642L72.1001 57.8242Z" fill="#DE5753"/>
<path d="M71.2363 60.8886C70.6705 60.8982 70.1234 60.6857 69.7123 60.2966C69.6977 60.2817 69.6895 60.2616 69.6895 60.2406C69.6895 60.2197 69.6977 60.1996 69.7123 60.1846C69.7194 60.1775 69.7278 60.1718 69.7371 60.168C69.7463 60.1641 69.7563 60.1621 69.7663 60.1621C69.7764 60.1621 69.7863 60.1641 69.7956 60.168C69.8048 60.1718 69.8133 60.1775 69.8203 60.1846C70.0636 60.4071 70.3559 60.569 70.6736 60.6573C70.9912 60.7456 71.3251 60.7577 71.6483 60.6926C71.6684 60.6902 71.6886 60.6955 71.7049 60.7074C71.7212 60.7192 71.7324 60.7368 71.7363 60.7566C71.7398 60.7773 71.7351 60.7985 71.7231 60.8157C71.7112 60.8329 71.6929 60.8447 71.6723 60.8486C71.5282 60.8729 71.3825 60.8862 71.2363 60.8886Z" fill="url(#paint32_linear_42_35313)"/>
<path d="M70.9921 52.6076C70.9001 53.7196 67.9041 54.6076 67.4681 57.3316C67.2361 58.7876 66.1561 59.8396 65.3801 59.9436C64.3132 59.9241 63.2896 59.5175 62.5001 58.7996C62.417 58.7069 62.3548 58.5976 62.3174 58.4788C62.2801 58.3601 62.2687 58.2348 62.2838 58.1112C62.299 57.9877 62.3404 57.8688 62.4053 57.7627C62.4702 57.6565 62.5571 57.5654 62.6601 57.4956C63.7561 56.7276 64.9161 55.7916 65.1321 54.3436C65.3961 52.6436 71.2481 49.5236 70.9921 52.6076Z" fill="#252929"/>
<path d="M64.6959 60.4524C64.941 61.0313 65.4035 61.4909 65.9839 61.7324C66.7599 62.0444 67.2359 61.3764 67.0999 60.5964C66.9719 59.8964 66.4199 58.8924 65.6079 58.9124C65.4303 58.92 65.2574 58.9718 65.1049 59.0631C64.9524 59.1544 64.8251 59.2823 64.7345 59.4352C64.6439 59.5882 64.593 59.7613 64.5862 59.9389C64.5795 60.1165 64.6172 60.293 64.6959 60.4524Z" fill="#E4897B"/>
<path d="M68.7603 56.973C68.7364 56.9768 68.7122 56.9768 68.6883 56.973C68.6524 56.9527 68.6254 56.9196 68.6128 56.8803C68.6002 56.841 68.6029 56.7984 68.6203 56.761C68.7279 56.5387 68.8872 56.3453 69.0848 56.1971C69.2825 56.0489 69.5127 55.9501 69.7563 55.909C69.7977 55.9048 69.839 55.9171 69.8713 55.9434C69.9036 55.9697 69.9241 56.0076 69.9283 56.049C69.9326 56.0904 69.9202 56.1318 69.8939 56.164C69.8677 56.1963 69.8297 56.2168 69.7883 56.221C69.5958 56.2555 69.4143 56.3356 69.2591 56.4546C69.1039 56.5736 68.9795 56.728 68.8963 56.905C68.8816 56.9273 68.8613 56.9453 68.8374 56.9572C68.8135 56.9692 68.7869 56.9746 68.7603 56.973Z" fill="url(#paint33_linear_42_35313)"/>
<path d="M73.856 55.6476C73.835 55.6477 73.8142 55.6436 73.795 55.6353C73.7757 55.627 73.7583 55.6149 73.744 55.5996C73.6128 55.4544 73.4491 55.3424 73.2662 55.2729C73.0833 55.2034 72.8865 55.1782 72.692 55.1996C72.6543 55.2013 72.6173 55.1894 72.5878 55.1659C72.5583 55.1424 72.5382 55.1091 72.5314 55.072C72.5246 55.0349 72.5314 54.9966 72.5506 54.9642C72.5699 54.9318 72.6002 54.9074 72.636 54.8956C72.8813 54.8637 73.1306 54.8918 73.3626 54.9775C73.5946 55.0632 73.8024 55.2039 73.968 55.3876C73.9971 55.4168 74.0134 55.4564 74.0134 55.4976C74.0134 55.5388 73.9971 55.5784 73.968 55.6076C73.937 55.6345 73.897 55.6487 73.856 55.6476Z" fill="url(#paint34_linear_42_35313)"/>
<path d="M64.9003 81.7115C63.3003 82.5115 61.6523 83.3755 60.0483 84.0275C59.7443 84.1555 59.4403 84.2635 59.1483 84.3595C59.1803 84.1715 59.2083 83.9835 59.2403 83.7955C59.3923 82.9475 59.5763 82.0955 59.8083 81.2435C60.0403 80.3915 60.2763 79.5315 60.5403 78.6795C61.0843 76.9875 61.6843 75.2595 62.3123 73.6235L59.2083 72.3555C58.4909 74.1082 57.87 75.8989 57.3483 77.7195C56.803 79.552 56.4018 81.4244 56.1483 83.3195C56.1003 83.8115 56.0403 84.2995 56.0283 84.8115L56.0083 85.1875C55.9951 85.441 56.0153 85.6952 56.0683 85.9435C56.1205 86.1535 56.2041 86.3544 56.3163 86.5395C56.4472 86.7507 56.6168 86.9353 56.8163 87.0835C57.1203 87.3086 57.4798 87.4468 57.8563 87.4835C58.0808 87.5108 58.3078 87.5108 58.5323 87.4835C58.7035 87.4569 58.8731 87.4209 59.0403 87.3755C59.3131 87.299 59.5804 87.2041 59.8403 87.0915C60.3102 86.8938 60.7671 86.6667 61.2083 86.4115C62.8486 85.4477 64.3977 84.3365 65.8363 83.0915L64.9003 81.7115Z" fill="#E4897B"/>
<path d="M45.7003 150.801H45.6523C45.2523 150.757 44.8523 150.101 44.6323 149.717C44.6237 149.704 44.6191 149.688 44.6191 149.673C44.6191 149.657 44.6237 149.642 44.6323 149.629C44.6419 149.617 44.6545 149.609 44.6687 149.605C44.683 149.601 44.6981 149.6 44.7123 149.605C44.8443 149.641 45.9803 149.969 46.1043 150.369C46.1174 150.414 46.1184 150.462 46.1071 150.507C46.0959 150.553 46.0729 150.595 46.0403 150.629C45.9991 150.68 45.9474 150.722 45.8888 150.751C45.8302 150.781 45.7659 150.798 45.7003 150.801ZM44.8603 149.805C45.1483 150.309 45.4483 150.605 45.6603 150.645C45.7112 150.648 45.762 150.638 45.8082 150.616C45.8543 150.595 45.8942 150.562 45.9243 150.521C45.9387 150.506 45.9489 150.488 45.9539 150.469C45.9588 150.449 45.9583 150.428 45.9523 150.409C45.9003 150.181 45.3003 149.933 44.8643 149.789L44.8603 149.805Z" fill="url(#paint35_linear_42_35313)"/>
<path d="M45.224 149.799C45.0389 149.804 44.8542 149.782 44.676 149.731C44.6636 149.726 44.6527 149.718 44.6443 149.707C44.6359 149.697 44.6303 149.685 44.628 149.671C44.6253 149.658 44.6262 149.645 44.6304 149.632C44.6346 149.619 44.642 149.608 44.652 149.599C44.684 149.571 45.404 148.959 45.852 149.015C45.9117 149.021 45.9693 149.04 46.0205 149.072C46.0717 149.103 46.1153 149.145 46.148 149.195C46.1859 149.244 46.2066 149.304 46.2066 149.365C46.2066 149.427 46.1859 149.487 46.148 149.535C45.8827 149.734 45.5539 149.827 45.224 149.799ZM44.872 149.619C45.272 149.691 45.908 149.619 46.048 149.439C46.072 149.411 46.092 149.363 46.048 149.283C46.0273 149.251 45.9997 149.224 45.9672 149.204C45.9346 149.184 45.898 149.171 45.86 149.167C45.4923 149.214 45.1475 149.371 44.872 149.619Z" fill="url(#paint36_linear_42_35313)"/>
<path d="M69.9961 57.2647L70.5881 56.9727C70.5881 56.9727 70.3521 57.5167 69.9961 57.2647Z" fill="url(#paint37_linear_42_35313)"/>
<path d="M72.7921 88.7402C72.7921 88.7402 69.7761 115.004 67.4961 123.436C64.7921 133.436 47.9881 146.916 47.9881 146.916L44.5801 144.024C44.5801 144.024 56.7601 129.388 58.8281 124.116C63.2281 112.86 59.4641 96.0842 62.9881 88.7402H72.7921Z" fill="url(#paint38_linear_42_35313)"/>
<path opacity="0.5" d="M72.7921 88.7402C72.7921 88.7402 69.7761 115.004 67.4961 123.436C64.7921 133.436 47.9881 146.916 47.9881 146.916L44.5801 144.024C44.5801 144.024 56.7601 129.388 58.8281 124.116C63.2281 112.86 59.4641 96.0842 62.9881 88.7402H72.7921Z" fill="black"/>
<path d="M44.0361 143.868L48.2641 147.46L49.8441 146.512L45.0601 142.064L44.0361 143.868Z" fill="url(#paint39_linear_42_35313)"/>
<path d="M62.7919 87.9604L62.4479 89.1604C62.4039 89.2524 62.5119 89.3444 62.6679 89.3444H76.3759C76.4959 89.3444 76.5959 89.2884 76.6039 89.2124L76.7239 88.0124C76.7239 87.9284 76.6279 87.8604 76.4959 87.8604H63.0079C62.9663 87.8565 62.9243 87.8636 62.8864 87.8812C62.8484 87.8988 62.8158 87.9261 62.7919 87.9604Z" fill="url(#paint40_linear_42_35313)"/>
<path opacity="0.2" d="M62.7919 87.9604L62.4479 89.1604C62.4039 89.2524 62.5119 89.3444 62.6679 89.3444H76.3759C76.4959 89.3444 76.5959 89.2884 76.6039 89.2124L76.7239 88.0124C76.7239 87.9284 76.6279 87.8604 76.4959 87.8604H63.0079C62.9663 87.8565 62.9243 87.8636 62.8864 87.8812C62.8484 87.8988 62.8158 87.9261 62.7919 87.9604Z" fill="white"/>
<path d="M64.5999 89.468H64.2399C64.1679 89.468 64.1119 89.428 64.1199 89.384L64.2879 87.8359C64.2879 87.7879 64.3559 87.752 64.4279 87.752H64.7879C64.8599 87.752 64.9159 87.7879 64.9119 87.8359L64.7399 89.384C64.7359 89.428 64.6719 89.468 64.5999 89.468Z" fill="url(#paint41_linear_42_35313)"/>
<path d="M75.3602 89.468H75.0002C74.9282 89.468 74.8722 89.428 74.8762 89.384L75.0482 87.8359C75.0482 87.7879 75.1162 87.752 75.1882 87.752H75.5482C75.6202 87.752 75.6722 87.7879 75.6682 87.8359L75.5002 89.384C75.4962 89.428 75.4322 89.468 75.3602 89.468Z" fill="url(#paint42_linear_42_35313)"/>
<path d="M69.9803 89.468H69.6203C69.5483 89.468 69.4923 89.428 69.4963 89.384L69.6683 87.8359C69.6683 87.7879 69.7363 87.752 69.8083 87.752H70.1683C70.2403 87.752 70.2963 87.7879 70.2923 87.8359L70.1203 89.384C70.1003 89.428 70.0523 89.468 69.9803 89.468Z" fill="url(#paint43_linear_42_35313)"/>
<path opacity="0.5" d="M64.5999 89.468H64.2399C64.1679 89.468 64.1119 89.428 64.1199 89.384L64.2879 87.8359C64.2879 87.7879 64.3559 87.752 64.4279 87.752H64.7879C64.8599 87.752 64.9159 87.7879 64.9119 87.8359L64.7399 89.384C64.7359 89.428 64.6719 89.468 64.5999 89.468Z" fill="black"/>
<path opacity="0.5" d="M75.3602 89.468H75.0002C74.9282 89.468 74.8722 89.428 74.8762 89.384L75.0482 87.8359C75.0482 87.7879 75.1162 87.752 75.1882 87.752H75.5482C75.6202 87.752 75.6722 87.7879 75.6682 87.8359L75.5002 89.384C75.4962 89.428 75.4322 89.468 75.3602 89.468Z" fill="black"/>
<path opacity="0.5" d="M69.9803 89.468H69.6203C69.5483 89.468 69.4923 89.428 69.4963 89.384L69.6683 87.8359C69.6683 87.7879 69.7363 87.752 69.8083 87.752H70.1683C70.2403 87.752 70.2963 87.7879 70.2923 87.8359L70.1203 89.384C70.1003 89.428 70.0523 89.468 69.9803 89.468Z" fill="black"/>
<path d="M88.8402 71.2004C87.412 70.1285 85.6739 69.5501 83.8882 69.5524V69.1524C85.7637 69.1451 87.59 69.752 89.0882 70.8804L88.8402 71.2004Z" fill="url(#paint44_linear_42_35313)"/>
<path d="M90.8723 73.3929C90.5099 72.8234 90.0801 72.2996 89.5923 71.8329L89.8683 71.5449C90.3805 72.0327 90.8318 72.5807 91.2123 73.1769L90.8723 73.3929Z" fill="url(#paint45_linear_42_35313)"/>
<path opacity="0.2" d="M88.8402 71.2004C87.412 70.1285 85.6739 69.5501 83.8882 69.5524V69.1524C85.7637 69.1451 87.59 69.752 89.0882 70.8804L88.8402 71.2004Z" fill="black"/>
<path opacity="0.2" d="M90.8723 73.3929C90.5099 72.8234 90.0801 72.2996 89.5923 71.8329L89.8683 71.5449C90.3805 72.0327 90.8318 72.5807 91.2123 73.1769L90.8723 73.3929Z" fill="black"/>
<path d="M67.8841 74.9247C69.0398 73.3817 70.7609 72.3607 72.6691 72.0862C74.5772 71.8117 76.5163 72.3061 78.0601 73.4607C79.2299 71.9562 80.9436 70.971 82.8324 70.7172C84.7212 70.4633 86.6342 70.9611 88.1597 72.1034C89.6853 73.2457 90.7014 74.9412 90.9895 76.8251C91.2775 78.709 90.8146 80.6307 89.7001 82.1767L80.9841 93.8167L69.3441 85.1047C68.5798 84.5322 67.9358 83.8147 67.4488 82.9932C66.9618 82.1717 66.6414 81.2624 66.5058 80.3171C66.3702 79.3718 66.4222 78.4091 66.6587 77.4838C66.8951 76.5586 67.3116 75.689 67.8841 74.9247Z" fill="#00AE50"/>
<path opacity="0.2" d="M67.8841 74.9247C69.0398 73.3817 70.7609 72.3607 72.6691 72.0862C74.5772 71.8117 76.5163 72.3061 78.0601 73.4607C79.2299 71.9562 80.9436 70.971 82.8324 70.7172C84.7212 70.4633 86.6342 70.9611 88.1597 72.1034C89.6853 73.2457 90.7014 74.9412 90.9895 76.8251C91.2775 78.709 90.8146 80.6307 89.7001 82.1767L80.9841 93.8167L69.3441 85.1047C68.5798 84.5322 67.9358 83.8147 67.4488 82.9932C66.9618 82.1717 66.6414 81.2624 66.5058 80.3171C66.3702 79.3718 66.4222 78.4091 66.6587 77.4838C66.8951 76.5586 67.3116 75.689 67.8841 74.9247Z" fill="black"/>
<path d="M67.8319 77.1602L69.1759 79.6122L67.2999 81.5282L65.5439 78.6962L67.8319 77.1602Z" fill="#E4897B"/>
<path d="M64.4443 82.0633L65.5443 78.6953L67.3003 81.5273C67.3003 81.5273 66.2683 83.3633 64.9003 83.3353L64.4443 82.0633Z" fill="#E4897B"/>
<path d="M60.6279 68.8519C59.2959 69.2519 57.6919 73.8519 57.6919 73.8519L62.8679 77.5519C62.8679 77.5519 64.7559 73.7159 64.1959 71.9919C63.6119 70.1959 62.1519 68.3999 60.6279 68.8519Z" fill="url(#paint46_linear_42_35313)"/>
<path opacity="0.6" d="M60.6279 68.8519C59.2959 69.2519 57.6919 73.8519 57.6919 73.8519L62.8679 77.5519C62.8679 77.5519 64.7559 73.7159 64.1959 71.9919C63.6119 70.1959 62.1519 68.3999 60.6279 68.8519Z" fill="white"/>
<path d="M92.324 75.9805L93.024 78.6885L90.732 80.0885L89.728 76.9085L92.324 75.9805Z" fill="#E4897B"/>
<defs>
<linearGradient id="paint0_linear_42_35313" x1="125.63" y1="80.3965" x2="151.49" y2="97.4596" gradientUnits="userSpaceOnUse">
<stop stop-color="#FC0305"/>
<stop offset="1" stop-color="#910305"/>
</linearGradient>
<linearGradient id="paint1_linear_42_35313" x1="123.136" y1="81.1777" x2="135.717" y2="88.4257" gradientUnits="userSpaceOnUse">
<stop stop-color="#FC0305"/>
<stop offset="1" stop-color="#910305"/>
</linearGradient>
<linearGradient id="paint2_linear_42_35313" x1="128.356" y1="107.416" x2="160.686" y2="118.321" gradientUnits="userSpaceOnUse">
<stop stop-color="#FC0305"/>
<stop offset="1" stop-color="#910305"/>
</linearGradient>
<linearGradient id="paint3_linear_42_35313" x1="115.504" y1="107.416" x2="153.201" y2="123.004" gradientUnits="userSpaceOnUse">
<stop stop-color="#FC0305"/>
<stop offset="1" stop-color="#910305"/>
</linearGradient>
<linearGradient id="paint4_linear_42_35313" x1="138.619" y1="162.424" x2="141.018" y2="168.643" gradientUnits="userSpaceOnUse">
<stop stop-color="#FC0305"/>
<stop offset="1" stop-color="#910305"/>
</linearGradient>
<linearGradient id="paint5_linear_42_35313" x1="115.147" y1="162.424" x2="117.176" y2="168.937" gradientUnits="userSpaceOnUse">
<stop stop-color="#FC0305"/>
<stop offset="1" stop-color="#910305"/>
</linearGradient>
<linearGradient id="paint6_linear_42_35313" x1="139.384" y1="156.744" x2="140.454" y2="160.765" gradientUnits="userSpaceOnUse">
<stop stop-color="#FC0305"/>
<stop offset="1" stop-color="#910305"/>
</linearGradient>
<linearGradient id="paint7_linear_42_35313" x1="119.024" y1="156.744" x2="120.095" y2="160.764" gradientUnits="userSpaceOnUse">
<stop stop-color="#FC0305"/>
<stop offset="1" stop-color="#910305"/>
</linearGradient>
<linearGradient id="paint8_linear_42_35313" x1="134.251" y1="69.4141" x2="135.093" y2="69.9889" gradientUnits="userSpaceOnUse">
<stop stop-color="#FC0305"/>
<stop offset="1" stop-color="#910305"/>
</linearGradient>
<linearGradient id="paint9_linear_42_35313" x1="131.575" y1="68.7715" x2="132.418" y2="69.3459" gradientUnits="userSpaceOnUse">
<stop stop-color="#FC0305"/>
<stop offset="1" stop-color="#910305"/>
</linearGradient>
<linearGradient id="paint10_linear_42_35313" x1="132.882" y1="72.125" x2="133.241" y2="73.2425" gradientUnits="userSpaceOnUse">
<stop stop-color="#FC0305"/>
<stop offset="1" stop-color="#910305"/>
</linearGradient>
<linearGradient id="paint11_linear_42_35313" x1="134.823" y1="68.2031" x2="135.913" y2="69.3728" gradientUnits="userSpaceOnUse">
<stop stop-color="#FC0305"/>
<stop offset="1" stop-color="#910305"/>
</linearGradient>
<linearGradient id="paint12_linear_42_35313" x1="131.102" y1="67.2988" x2="131.816" y2="68.4941" gradientUnits="userSpaceOnUse">
<stop stop-color="#FC0305"/>
<stop offset="1" stop-color="#910305"/>
</linearGradient>
<linearGradient id="paint13_linear_42_35313" x1="141.885" y1="162.189" x2="142.528" y2="163.46" gradientUnits="userSpaceOnUse">
<stop stop-color="#FC0305"/>
<stop offset="1" stop-color="#910305"/>
</linearGradient>
<linearGradient id="paint14_linear_42_35313" x1="142.541" y1="161.494" x2="143.859" y2="162.387" gradientUnits="userSpaceOnUse">
<stop stop-color="#FC0305"/>
<stop offset="1" stop-color="#910305"/>
</linearGradient>
<linearGradient id="paint15_linear_42_35313" x1="120.682" y1="162.188" x2="121.262" y2="163.544" gradientUnits="userSpaceOnUse">
<stop stop-color="#FC0305"/>
<stop offset="1" stop-color="#910305"/>
</linearGradient>
<linearGradient id="paint16_linear_42_35313" x1="121.452" y1="161.488" x2="122.836" y2="162.602" gradientUnits="userSpaceOnUse">
<stop stop-color="#FC0305"/>
<stop offset="1" stop-color="#910305"/>
</linearGradient>
<linearGradient id="paint17_linear_42_35313" x1="118.734" y1="83.4219" x2="140.212" y2="105.229" gradientUnits="userSpaceOnUse">
<stop stop-color="#FC0305"/>
<stop offset="1" stop-color="#910305"/>
</linearGradient>
<linearGradient id="paint18_linear_42_35313" x1="107.596" y1="87.4258" x2="124.753" y2="104.138" gradientUnits="userSpaceOnUse">
<stop stop-color="#FC0305"/>
<stop offset="1" stop-color="#910305"/>
</linearGradient>
<linearGradient id="paint19_linear_42_35313" x1="112.003" y1="92.6758" x2="141.694" y2="122.675" gradientUnits="userSpaceOnUse">
<stop stop-color="#FC0305"/>
<stop offset="1" stop-color="#910305"/>
</linearGradient>
<linearGradient id="paint20_linear_42_35313" x1="140.379" y1="81.0527" x2="153.516" y2="89.7124" gradientUnits="userSpaceOnUse">
<stop stop-color="#FC0305"/>
<stop offset="1" stop-color="#910305"/>
</linearGradient>
<linearGradient id="paint21_linear_42_35313" x1="78.2664" y1="68" x2="58.0368" y2="83.9706" gradientUnits="userSpaceOnUse">
<stop stop-color="#F5E906"/>
<stop offset="1" stop-color="#635F00"/>
</linearGradient>
<linearGradient id="paint22_linear_42_35313" x1="80.1719" y1="68.7227" x2="72.0484" y2="74.3345" gradientUnits="userSpaceOnUse">
<stop stop-color="#F5E906"/>
<stop offset="1" stop-color="#635F00"/>
</linearGradient>
<linearGradient id="paint23_linear_42_35313" x1="79.2901" y1="162.188" x2="76.6483" y2="168.571" gradientUnits="userSpaceOnUse">
<stop stop-color="#F5E906"/>
<stop offset="1" stop-color="#635F00"/>
</linearGradient>
<linearGradient id="paint24_linear_42_35313" x1="76.1272" y1="161.928" x2="75.5058" y2="163.331" gradientUnits="userSpaceOnUse">
<stop stop-color="#F5E906"/>
<stop offset="1" stop-color="#635F00"/>
</linearGradient>
<linearGradient id="paint25_linear_42_35313" x1="75.3076" y1="161.178" x2="73.8799" y2="162.269" gradientUnits="userSpaceOnUse">
<stop stop-color="#F5E906"/>
<stop offset="1" stop-color="#635F00"/>
</linearGradient>
<linearGradient id="paint26_linear_42_35313" x1="78.6934" y1="88.7363" x2="56.6777" y2="92.3109" gradientUnits="userSpaceOnUse">
<stop stop-color="#F5E906"/>
<stop offset="1" stop-color="#635F00"/>
</linearGradient>
<linearGradient id="paint27_linear_42_35313" x1="46.0679" y1="146.334" x2="37.9669" y2="152.31" gradientUnits="userSpaceOnUse">
<stop stop-color="#F5E906"/>
<stop offset="1" stop-color="#635F00"/>
</linearGradient>
<linearGradient id="paint28_linear_42_35313" x1="75.412" y1="156.428" x2="74.2651" y2="159.764" gradientUnits="userSpaceOnUse">
<stop stop-color="#F5E906"/>
<stop offset="1" stop-color="#635F00"/>
</linearGradient>
<linearGradient id="paint29_linear_42_35313" x1="69.8035" y1="57.2246" x2="70.7071" y2="57.8227" gradientUnits="userSpaceOnUse">
<stop stop-color="#FC0305"/>
<stop offset="1" stop-color="#910305"/>
</linearGradient>
<linearGradient id="paint30_linear_42_35313" x1="72.7497" y1="56.6934" x2="73.6608" y2="57.2908" gradientUnits="userSpaceOnUse">
<stop stop-color="#FC0305"/>
<stop offset="1" stop-color="#910305"/>
</linearGradient>
<linearGradient id="paint31_linear_42_35313" x1="72.9162" y1="56.4531" x2="73.2501" y2="56.9862" gradientUnits="userSpaceOnUse">
<stop stop-color="#FC0305"/>
<stop offset="1" stop-color="#910305"/>
</linearGradient>
<linearGradient id="paint32_linear_42_35313" x1="69.6072" y1="60.1621" x2="70.0988" y2="61.4938" gradientUnits="userSpaceOnUse">
<stop stop-color="#FC0305"/>
<stop offset="1" stop-color="#910305"/>
</linearGradient>
<linearGradient id="paint33_linear_42_35313" x1="68.5518" y1="55.9082" x2="69.6462" y2="57.2131" gradientUnits="userSpaceOnUse">
<stop stop-color="#FC0305"/>
<stop offset="1" stop-color="#910305"/>
</linearGradient>
<linearGradient id="paint34_linear_42_35313" x1="72.4692" y1="54.8828" x2="73.1321" y2="56.1199" gradientUnits="userSpaceOnUse">
<stop stop-color="#FC0305"/>
<stop offset="1" stop-color="#910305"/>
</linearGradient>
<linearGradient id="paint35_linear_42_35313" x1="46.1149" y1="149.602" x2="44.9252" y2="150.979" gradientUnits="userSpaceOnUse">
<stop stop-color="#F5E906"/>
<stop offset="1" stop-color="#635F00"/>
</linearGradient>
<linearGradient id="paint36_linear_42_35313" x1="46.2066" y1="149.012" x2="45.5419" y2="150.242" gradientUnits="userSpaceOnUse">
<stop stop-color="#F5E906"/>
<stop offset="1" stop-color="#635F00"/>
</linearGradient>
<linearGradient id="paint37_linear_42_35313" x1="69.9723" y1="56.9727" x2="70.3091" y2="57.5071" gradientUnits="userSpaceOnUse">
<stop stop-color="#FC0305"/>
<stop offset="1" stop-color="#910305"/>
</linearGradient>
<linearGradient id="paint38_linear_42_35313" x1="72.7921" y1="88.7402" x2="29.1196" y2="108.4" gradientUnits="userSpaceOnUse">
<stop stop-color="#F5E906"/>
<stop offset="1" stop-color="#635F00"/>
</linearGradient>
<linearGradient id="paint39_linear_42_35313" x1="49.8441" y1="142.064" x2="44.4332" y2="147.471" gradientUnits="userSpaceOnUse">
<stop stop-color="#F5E906"/>
<stop offset="1" stop-color="#635F00"/>
</linearGradient>
<linearGradient id="paint40_linear_42_35313" x1="76.7239" y1="87.8594" x2="76.3945" y2="90.8008" gradientUnits="userSpaceOnUse">
<stop stop-color="#F5E906"/>
<stop offset="1" stop-color="#635F00"/>
</linearGradient>
<linearGradient id="paint41_linear_42_35313" x1="64.9121" y1="87.752" x2="63.6653" y2="88.2868" gradientUnits="userSpaceOnUse">
<stop stop-color="#F5E906"/>
<stop offset="1" stop-color="#635F00"/>
</linearGradient>
<linearGradient id="paint42_linear_42_35313" x1="75.6684" y1="87.752" x2="74.4221" y2="88.2862" gradientUnits="userSpaceOnUse">
<stop stop-color="#F5E906"/>
<stop offset="1" stop-color="#635F00"/>
</linearGradient>
<linearGradient id="paint43_linear_42_35313" x1="70.2925" y1="87.752" x2="69.0419" y2="88.2907" gradientUnits="userSpaceOnUse">
<stop stop-color="#F5E906"/>
<stop offset="1" stop-color="#635F00"/>
</linearGradient>
<linearGradient id="paint44_linear_42_35313" x1="89.0882" y1="69.1523" x2="87.6113" y2="72.6332" gradientUnits="userSpaceOnUse">
<stop stop-color="#F5E906"/>
<stop offset="1" stop-color="#635F00"/>
</linearGradient>
<linearGradient id="paint45_linear_42_35313" x1="91.2123" y1="71.5449" x2="89.3978" y2="73.0214" gradientUnits="userSpaceOnUse">
<stop stop-color="#F5E906"/>
<stop offset="1" stop-color="#635F00"/>
</linearGradient>
<linearGradient id="paint46_linear_42_35313" x1="64.2997" y1="68.7812" x2="56.0386" y2="74.5589" gradientUnits="userSpaceOnUse">
<stop stop-color="#F5E906"/>
<stop offset="1" stop-color="#635F00"/>
</linearGradient>
</defs>
</svg>
