<svg width="20" height="22" viewBox="0 0 20 22" fill="none" xmlns="http://www.w3.org/2000/svg">
<path d="M1.5 12V11.1963C1.5 8.22888 1.5 6.7452 1.96894 5.56021C2.72281 3.65518 4.31714 2.15252 6.33836 1.44198C7.59563 1 9.16981 1 12.3182 1C14.1172 1 15.0168 1 15.7352 1.25256C16.8902 1.65858 17.8012 2.51725 18.232 3.60583C18.5 4.28297 18.5 5.13079 18.5 6.82643V12M1.5 11C1.5 9.15905 2.99238 7.66667 4.83333 7.66667C5.49912 7.66667 6.28404 7.78333 6.93137 7.60988C7.50652 7.45576 7.95576 7.00652 8.10988 6.43136C8.28333 5.78404 8.16667 4.99912 8.16667 4.33333C8.16667 2.49238 9.65905 1 11.5 1M1.5 21V18M1.5 18V16.2C1.5 15.6343 1.5 15.3515 1.67574 15.1757C1.85147 15 2.13431 15 2.7 15H3.5C4.32843 15 5 15.6716 5 16.5C5 17.3284 4.32843 18 3.5 18H1.5ZM18.5 15H17C16.0572 15 15.5858 15 15.2929 15.2929C15 15.5858 15 16.0572 15 17V18M15 21V18M15 18H17.5M12 18C12 19.6569 10.6569 21 9 21C8.62615 21 8.43923 21 8.3 20.9196C7.96665 20.7272 8 20.3376 8 20V16C8 15.6624 7.96665 15.2728 8.3 15.0804C8.43923 15 8.62615 15 9 15C10.6569 15 12 16.3431 12 18Z" stroke="white" stroke-width="1.5" stroke-linecap="round" stroke-linejoin="round"/>
</svg>
