<svg width="16" height="16" viewBox="0 0 16 16" fill="none" xmlns="http://www.w3.org/2000/svg">
<path d="M4.00004 5.25065C3.42887 5.25065 3.07593 5.24906 2.81983 5.21463C2.58529 5.18309 2.54702 5.13689 2.53875 5.12861L1.47809 6.18927C1.81152 6.5227 2.21909 6.64735 2.61995 6.70125C2.99925 6.75224 3.47127 6.75065 4.00004 6.75065V5.25065ZM0.916707 3.66732C0.916707 4.19609 0.915115 4.66811 0.966109 5.0474C1.02 5.44827 1.14465 5.85584 1.47809 6.18927L2.53875 5.12861C2.53047 5.12033 2.48427 5.08207 2.45273 4.84753C2.4183 4.59142 2.41671 4.23849 2.41671 3.66732H0.916707ZM5.58337 3.66732C5.58337 4.23849 5.58178 4.59142 5.54735 4.84753C5.51582 5.08207 5.46961 5.12033 5.46134 5.12861L6.522 6.18927C6.85543 5.85584 6.98008 5.44827 7.03397 5.0474C7.08497 4.66811 7.08337 4.19609 7.08337 3.66732H5.58337ZM4.00004 6.75065C4.52881 6.75065 5.00084 6.75224 5.38013 6.70125C5.78099 6.64735 6.18856 6.5227 6.522 6.18927L5.46134 5.12861C5.45306 5.13689 5.41479 5.18309 5.18026 5.21463C4.92415 5.24906 4.57122 5.25065 4.00004 5.25065V6.75065ZM4.00004 2.08398C4.57122 2.08398 4.92415 2.08558 5.18026 2.12001C5.41479 2.15154 5.45306 2.19775 5.46134 2.20602L6.522 1.14536C6.18856 0.811932 5.78099 0.687281 5.38013 0.633386C5.00084 0.582392 4.52881 0.583984 4.00004 0.583984V2.08398ZM7.08337 3.66732C7.08337 3.13855 7.08497 2.66652 7.03397 2.28723C6.98008 1.88637 6.85543 1.47879 6.522 1.14536L5.46134 2.20602C5.46961 2.2143 5.51582 2.25257 5.54735 2.4871C5.58178 2.74321 5.58337 3.09614 5.58337 3.66732H7.08337ZM4.00004 0.583984C3.47127 0.583984 2.99925 0.582392 2.61995 0.633386C2.21909 0.687281 1.81152 0.811932 1.47809 1.14536L2.53875 2.20602C2.54702 2.19775 2.58529 2.15154 2.81983 2.12001C3.07593 2.08558 3.42887 2.08398 4.00004 2.08398V0.583984ZM2.41671 3.66732C2.41671 3.09614 2.4183 2.74321 2.45273 2.4871C2.48427 2.25257 2.53047 2.2143 2.53875 2.20602L1.47809 1.14536C1.14465 1.47879 1.02 1.88637 0.966109 2.28723C0.915115 2.66652 0.916707 3.13855 0.916707 3.66732H2.41671ZM2.96827 13.0324C2.58509 12.6492 2.35218 12.4141 2.20578 12.2222C2.13797 12.1333 2.10805 12.0777 2.09463 12.0455C2.0837 12.0193 2.08337 12.0083 2.08337 12.0007H0.583374C0.583374 12.4593 0.778254 12.8241 1.01325 13.1321C1.23504 13.4228 1.55442 13.7399 1.90761 14.0931L2.96827 13.0324ZM1.90761 9.90822C1.55442 10.2614 1.23504 10.5785 1.01325 10.8692C0.778254 11.1772 0.583374 11.542 0.583374 12.0007H2.08337C2.08337 11.993 2.0837 11.982 2.09463 11.9558C2.10805 11.9236 2.13797 11.868 2.20578 11.7791C2.35218 11.5872 2.58509 11.3521 2.96827 10.9689L1.90761 9.90822ZM5.03181 13.0324C4.64863 13.4156 4.41346 13.6485 4.22158 13.7949C4.13271 13.8627 4.0771 13.8926 4.04491 13.9061C4.01871 13.917 4.00771 13.9173 4.00004 13.9173V15.4173C4.45872 15.4173 4.82346 15.2224 5.13146 14.9874C5.42215 14.7657 5.73927 14.4463 6.09247 14.0931L5.03181 13.0324ZM1.90761 14.0931C2.26081 14.4463 2.57793 14.7657 2.86863 14.9874C3.17663 15.2224 3.54136 15.4173 4.00004 15.4173V13.9173C3.99237 13.9173 3.98138 13.917 3.95517 13.9061C3.92298 13.8926 3.86738 13.8627 3.7785 13.7949C3.58662 13.6485 3.35146 13.4156 2.96827 13.0324L1.90761 14.0931ZM5.03181 10.9689C5.41499 11.3521 5.6479 11.5872 5.7943 11.7791C5.86211 11.868 5.89203 11.9236 5.90545 11.9558C5.91638 11.982 5.91671 11.993 5.91671 12.0007H7.41671C7.41671 11.542 7.22183 11.1772 6.98683 10.8692C6.76504 10.5785 6.44567 10.2614 6.09247 9.90822L5.03181 10.9689ZM6.09247 14.0931C6.44567 13.7399 6.76504 13.4228 6.98683 13.1321C7.22183 12.8241 7.41671 12.4593 7.41671 12.0007H5.91671C5.91671 12.0083 5.91638 12.0193 5.90545 12.0455C5.89203 12.0777 5.86211 12.1333 5.7943 12.2222C5.6479 12.4141 5.41499 12.6492 5.03181 13.0324L6.09247 14.0931ZM6.09247 9.90822C5.73927 9.55503 5.42215 9.23565 5.13146 9.01386C4.82346 8.77886 4.45872 8.58398 4.00004 8.58398V10.084C4.00771 10.084 4.01871 10.0843 4.04491 10.0952C4.0771 10.1087 4.13271 10.1386 4.22158 10.2064C4.41346 10.3528 4.64863 10.5857 5.03181 10.9689L6.09247 9.90822ZM2.96827 10.9689C3.35146 10.5857 3.58662 10.3528 3.7785 10.2064C3.86738 10.1386 3.92298 10.1087 3.95517 10.0952C3.98138 10.0843 3.99237 10.084 4.00004 10.084V8.58398C3.54136 8.58398 3.17663 8.77886 2.86863 9.01386C2.57793 9.23565 2.26081 9.55503 1.90761 9.90822L2.96827 10.9689ZM3.25004 6.00065V9.33398H4.75004V6.00065H3.25004ZM6.66671 12.7507H10V11.2507H6.66671V12.7507ZM12.3334 13.584C11.7622 13.584 11.4093 13.5824 11.1532 13.548C10.9186 13.5164 10.8804 13.4702 10.8721 13.4619L9.81142 14.5226C10.1449 14.856 10.5524 14.9807 10.9533 15.0346C11.3326 15.0856 11.8046 15.084 12.3334 15.084V13.584ZM9.25004 12.0007C9.25004 12.5294 9.24845 13.0014 9.29944 13.3807C9.35334 13.7816 9.47799 14.1892 9.81142 14.5226L10.8721 13.4619C10.8638 13.4537 10.8176 13.4154 10.7861 13.1809C10.7516 12.9248 10.75 12.5718 10.75 12.0007H9.25004ZM13.9167 12.0007C13.9167 12.5718 13.9151 12.9248 13.8807 13.1809C13.8491 13.4154 13.8029 13.4537 13.7947 13.4619L14.8553 14.5226C15.1888 14.1892 15.3134 13.7816 15.3673 13.3807C15.4183 13.0014 15.4167 12.5294 15.4167 12.0007H13.9167ZM12.3334 15.084C12.8621 15.084 13.3342 15.0856 13.7135 15.0346C14.1143 14.9807 14.5219 14.856 14.8553 14.5226L13.7947 13.4619C13.7864 13.4702 13.7481 13.5164 13.5136 13.548C13.2575 13.5824 12.9045 13.584 12.3334 13.584V15.084ZM12.3334 10.4173C12.9045 10.4173 13.2575 10.4189 13.5136 10.4533C13.7481 10.4849 13.7864 10.5311 13.7947 10.5394L14.8553 9.4787C14.5219 9.14527 14.1143 9.02061 13.7135 8.96672C13.3342 8.91573 12.8621 8.91732 12.3334 8.91732V10.4173ZM15.4167 12.0007C15.4167 11.4719 15.4183 10.9999 15.3673 10.6206C15.3134 10.2197 15.1888 9.81213 14.8553 9.4787L13.7947 10.5394C13.8029 10.5476 13.8491 10.5859 13.8807 10.8204C13.9151 11.0765 13.9167 11.4295 13.9167 12.0007H15.4167ZM12.3334 8.91732C11.8046 8.91732 11.3326 8.91573 10.9533 8.96672C10.5524 9.02061 10.1449 9.14527 9.81142 9.4787L10.8721 10.5394C10.8804 10.5311 10.9186 10.4849 11.1532 10.4533C11.4093 10.4189 11.7622 10.4173 12.3334 10.4173V8.91732ZM10.75 12.0007C10.75 11.4295 10.7516 11.0765 10.7861 10.8204C10.8176 10.5859 10.8638 10.5476 10.8721 10.5394L9.81142 9.4787C9.47799 9.81213 9.35334 10.2197 9.29944 10.6206C9.24845 10.9999 9.25004 11.4719 9.25004 12.0007H10.75Z" fill="#586261"/>
</svg>
