<svg width="20" height="22" viewBox="0 0 20 22" fill="none" xmlns="http://www.w3.org/2000/svg">
<path d="M2.24049 2.17157L2.75546 2.71683L2.75546 2.71683L2.24049 2.17157ZM2.24049 19.8284L1.72552 20.3737L2.24049 19.8284ZM17.7595 2.17157L18.2745 1.62631V1.62631L17.7595 2.17157ZM18.25 10C18.25 10.4142 18.5858 10.75 19 10.75C19.4142 10.75 19.75 10.4142 19.75 10H18.25ZM10 21.75C10.4142 21.75 10.75 21.4142 10.75 21C10.75 20.5858 10.4142 20.25 10 20.25V21.75ZM6 5.25C5.58579 5.25 5.25 5.58579 5.25 6C5.25 6.41421 5.58579 6.75 6 6.75V5.25ZM14 6.75C14.4142 6.75 14.75 6.41421 14.75 6C14.75 5.58579 14.4142 5.25 14 5.25V6.75ZM6 10.25C5.58579 10.25 5.25 10.5858 5.25 11C5.25 11.4142 5.58579 11.75 6 11.75V10.25ZM11 11.75C11.4142 11.75 11.75 11.4142 11.75 11C11.75 10.5858 11.4142 10.25 11 10.25V11.75ZM18.25 19.6471C18.25 20.0613 18.5858 20.3971 19 20.3971C19.4142 20.3971 19.75 20.0613 19.75 19.6471H18.25ZM19 16H19.75H19ZM13 16H13.75H13ZM13 19.5H12.25H13ZM16.2727 19.5H15.5227H16.2727ZM17.0227 16.7647C17.0227 16.3505 16.6869 16.0147 16.2727 16.0147C15.8585 16.0147 15.5227 16.3505 15.5227 16.7647H17.0227ZM14.6364 21V20.25V21ZM16 13V12.25V13ZM1.75 13V9H0.25V13H1.75ZM9.47059 1.75H10.5294V0.25H9.47059V1.75ZM1.75 9C1.75 7.09197 1.75178 5.74077 1.89758 4.71661C2.03964 3.71864 2.30515 3.14213 2.75546 2.71683L1.72552 1.62631C0.935343 2.37259 0.580602 3.32468 0.412547 4.50521C0.248218 5.65957 0.25 7.13679 0.25 9H1.75ZM9.47059 0.25C7.49411 0.25 5.94044 0.248576 4.72885 0.402421C3.49987 0.558473 2.50965 0.885751 1.72552 1.62631L2.75546 2.71683C3.21182 2.28582 3.84011 2.02731 4.91779 1.89047C6.01287 1.75142 7.454 1.75 9.47059 1.75V0.25ZM9.47059 20.25C7.454 20.25 6.01286 20.2486 4.91779 20.1095C3.84011 19.9727 3.21182 19.7142 2.75546 19.2832L1.72552 20.3737C2.50965 21.1142 3.49987 21.4415 4.72884 21.5976C5.94043 21.7514 7.4941 21.75 9.47059 21.75V20.25ZM0.25 13C0.25 14.8632 0.248218 16.3404 0.412547 17.4948C0.580602 18.6753 0.935343 19.6274 1.72552 20.3737L2.75546 19.2832C2.30515 18.8579 2.03964 18.2814 1.89758 17.2834C1.75178 16.2592 1.75 14.908 1.75 13H0.25ZM19.75 9C19.75 7.1368 19.7518 5.65957 19.5875 4.50521C19.4194 3.32468 19.0647 2.37259 18.2745 1.62631L17.2445 2.71683C17.6949 3.14213 17.9604 3.71864 18.1024 4.71661C18.2482 5.74077 18.25 7.09197 18.25 9H19.75ZM10.5294 1.75C12.546 1.75 13.9871 1.75142 15.0822 1.89047C16.1599 2.02731 16.7882 2.28582 17.2445 2.71683L18.2745 1.62631C17.4904 0.885751 16.5001 0.558473 15.2712 0.402421C14.0596 0.248576 12.5059 0.25 10.5294 0.25V1.75ZM18.25 9V10H19.75V9H18.25ZM9.47059 21.75H10V20.25H9.47059V21.75ZM6 6.75H14V5.25H6V6.75ZM6 11.75H11V10.25H6V11.75ZM19.75 19.6471V16H18.25V19.6471H19.75ZM12.25 16V19.5H13.75V16H12.25ZM17.0227 19.5V16.7647H15.5227V19.5H17.0227ZM14.6364 21.75C15.9078 21.75 17.0227 20.739 17.0227 19.5H15.5227C15.5227 19.8204 15.1724 20.25 14.6364 20.25V21.75ZM12.25 19.5C12.25 20.739 13.3649 21.75 14.6364 21.75V20.25C14.1003 20.25 13.75 19.8204 13.75 19.5H12.25ZM16 12.25C14.9286 12.25 13.9914 12.7565 13.335 13.4473C12.6836 14.1328 12.25 15.0608 12.25 16H13.75C13.75 15.5098 13.9879 14.9378 14.4224 14.4806C14.8517 14.0288 15.4146 13.75 16 13.75V12.25ZM19.75 16C19.75 15.0608 19.3164 14.1328 18.665 13.4473C18.0086 12.7565 17.0714 12.25 16 12.25V13.75C16.5854 13.75 17.1483 14.0288 17.5776 14.4806C18.0121 14.9378 18.25 15.5098 18.25 16H19.75Z" fill="url(#paint0_linear_168_1384)"/>
<defs>
<linearGradient id="paint0_linear_168_1384" x1="0.277189" y1="1" x2="20.8803" y2="18.8269" gradientUnits="userSpaceOnUse">
<stop stop-color="#FC0305"/>
<stop offset="1" stop-color="#910305"/>
</linearGradient>
</defs>
</svg>
