<svg width="22" height="22" viewBox="0 0 22 22" fill="none" xmlns="http://www.w3.org/2000/svg">
<path d="M11 20.1334V19.1334H10.9987L11 20.1334ZM9.06542 19.9545L9.24999 18.9716L9.06542 19.9545ZM3.15111 20.893L2.37519 20.2621C2.15262 20.5359 2.09078 20.9067 2.21247 21.2379C2.33416 21.5691 2.62137 21.8116 2.96825 21.8761L3.15111 20.893ZM4.23778 18.5448L5.22012 18.7319L5.22044 18.7302L4.23778 18.5448ZM3.71889 17.1231L4.43142 16.4215L4.43139 16.4214L3.71889 17.1231ZM7.37499 20.2364L6.90545 19.3535H6.90545L7.37499 20.2364ZM11.9054 2.04277C12.4552 2.095 12.9433 1.69164 12.9955 1.14183C13.0478 0.592026 12.6444 0.103971 12.0946 0.051733L11.9054 2.04277ZM21.9777 12.7098C22.0936 12.1698 21.7498 11.6381 21.2098 11.5223C20.6698 11.4064 20.1381 11.7502 20.0223 12.2902L21.9777 12.7098ZM15.3913 7.06671L14.8239 6.24325L15.3913 7.06671ZM19.6087 7.06671L20.1761 6.24325V6.24325L19.6087 7.06671ZM14.2771 9.18845L13.5365 9.86032L14.2771 9.18845ZM20.7229 9.18845L19.9822 8.51659L20.7229 9.18845ZM10.9955 10C10.4432 10 9.99551 10.4477 9.99551 11C9.99551 11.5523 10.4432 12 10.9955 12V10ZM11.0045 12C11.5568 12 12.0045 11.5523 12.0045 11C12.0045 10.4477 11.5568 10 11.0045 10V12ZM7 10C6.44772 10 6 10.4477 6 11C6 11.5523 6.44772 12 7 12V10ZM7.00897 12C7.56126 12 8.00897 11.5523 8.00897 11C8.00897 10.4477 7.56126 10 7.00897 10V12ZM10.9987 19.1334C10.4119 19.1342 9.82669 19.0799 9.24999 18.9716L8.88084 20.9373C9.5798 21.0685 10.2895 21.1343 11.0013 21.1334L10.9987 19.1334ZM3.92703 21.5238C4.58089 20.7196 5.02461 19.7583 5.22012 18.7319L3.25544 18.3577C3.12088 19.0641 2.81659 19.7192 2.37519 20.2621L3.92703 21.5238ZM5.22044 18.7302C5.40213 17.7673 4.94002 16.938 4.43142 16.4215L3.00636 17.8247C3.23998 18.062 3.27342 18.2623 3.25512 18.3593L5.22044 18.7302ZM4.43139 16.4214C2.91816 14.8848 2 12.826 2 10.5667H0C0 13.3841 1.14851 15.9382 3.00639 17.8248L4.43139 16.4214ZM2 10.5667C2 5.87715 5.98784 2 11 2V0C4.96771 0 0 4.68999 0 10.5667H2ZM6.90545 19.3535C5.81643 19.9326 4.54783 20.1356 3.33397 19.9098L2.96825 21.8761C4.63608 22.1863 6.36384 21.9067 7.84452 21.1193L6.90545 19.3535ZM9.24999 18.9716C9.03064 18.9304 8.82987 18.8924 8.66483 18.8698C8.50518 18.8479 8.29186 18.8265 8.06555 18.8611L8.36751 20.8381C8.30145 20.8482 8.28303 20.8362 8.39298 20.8512C8.49755 20.8656 8.6411 20.8923 8.88084 20.9373L9.24999 18.9716ZM7.84452 21.1193C8.08022 20.994 8.22683 20.9163 8.33501 20.8649C8.45444 20.8082 8.44041 20.827 8.36751 20.8381L8.06555 18.8611C7.8324 18.8967 7.62469 18.9881 7.47696 19.0583C7.31798 19.1338 7.12395 19.2373 6.90545 19.3535L7.84452 21.1193ZM11 2C11.3059 2 11.6079 2.0145 11.9054 2.04277L12.0946 0.051733C11.7343 0.0174996 11.3691 0 11 0V2ZM20.0223 12.2902C19.1955 16.1433 15.4034 19.1334 11 19.1334V21.1334C16.2565 21.1334 20.935 17.5698 21.9777 12.7098L20.0223 12.2902ZM15.9587 7.89017C16.9072 7.23661 18.0928 7.23661 19.0413 7.89017L20.1761 6.24325C18.5443 5.11892 16.4557 5.11892 14.8239 6.24325L15.9587 7.89017ZM15.7853 11H19.2147V9H15.7853V11ZM15.0178 8.51659C14.9439 8.4351 15.0104 8.47255 14.9988 8.59566C14.9911 8.67643 14.9585 8.66976 15.048 8.56837C15.1326 8.47261 15.2645 8.36212 15.4399 8.23771C15.5243 8.17789 15.6102 8.12071 15.6982 8.06294C15.7796 8.00954 15.8777 7.94594 15.9587 7.89017L14.8239 6.24325C14.6548 6.35975 13.976 6.76079 13.5488 7.24466C13.3187 7.50524 13.0558 7.8974 13.0076 8.40757C12.9554 8.96007 13.1711 9.45751 13.5365 9.86032L15.0178 8.51659ZM19.0413 7.89017C19.1223 7.94594 19.2204 8.00954 19.3018 8.06294C19.3898 8.12071 19.4757 8.17789 19.5601 8.23771C19.7355 8.36212 19.8674 8.4726 19.952 8.56837C20.0415 8.66976 20.0089 8.67643 20.0012 8.59566C19.9896 8.47255 20.0561 8.4351 19.9822 8.51659L21.4635 9.86032C21.8289 9.45751 22.0446 8.96007 21.9924 8.40757C21.9442 7.8974 21.6813 7.50524 21.4512 7.24466C21.024 6.76079 20.3452 6.35975 20.1761 6.24325L19.0413 7.89017ZM19.9822 8.51659C19.6243 8.91111 19.3958 9 19.2147 9V11C20.2355 11 20.963 10.4121 21.4635 9.86032L19.9822 8.51659ZM13.5365 9.86032C14.037 10.4121 14.7645 11 15.7853 11V9C15.6042 9 15.3757 8.91111 15.0178 8.51659L13.5365 9.86032ZM18.25 2.8C18.25 3.26857 17.8878 3.6 17.5 3.6V5.6C19.0452 5.6 20.25 4.31965 20.25 2.8H18.25ZM17.5 3.6C17.1122 3.6 16.75 3.26857 16.75 2.8H14.75C14.75 4.31965 15.9548 5.6 17.5 5.6V3.6ZM16.75 2.8C16.75 2.33143 17.1122 2 17.5 2V0C15.9548 0 14.75 1.28034 14.75 2.8H16.75ZM17.5 2C17.8878 2 18.25 2.33143 18.25 2.8H20.25C20.25 1.28034 19.0452 0 17.5 0V2ZM10.9955 12H11.0045V10H10.9955V12ZM7 12H7.00897V10H7V12Z" fill="white"/>
</svg>
