<svg width="22" height="22" viewBox="0 0 22 22" fill="none" xmlns="http://www.w3.org/2000/svg">
<path d="M3.01569 13.0027L3.01395 13.7527C3.01944 13.7527 3.02492 13.7526 3.03041 13.7525L3.01569 13.0027ZM10.8765 15.3342L10.445 15.9476L10.8765 15.3342ZM17.3862 15.0001L17.3833 15.7501L17.387 15.7501L17.3862 15.0001ZM11 19.75C8.73963 19.75 7.11979 19.7484 5.88789 19.5828C4.67757 19.4201 3.95462 19.1115 3.42157 18.5784L2.36091 19.6391C3.21911 20.4973 4.31137 20.8843 5.68802 21.0694C7.04311 21.2516 8.78203 21.25 11 21.25V19.75ZM0.75 11C0.75 13.218 0.748407 14.9569 0.930593 16.312C1.11568 17.6886 1.50271 18.7809 2.36091 19.6391L3.42157 18.5784C2.88853 18.0454 2.57994 17.3224 2.41722 16.1121C2.25159 14.8802 2.25 13.2604 2.25 11H0.75ZM19.75 11C19.75 13.2604 19.7484 14.8802 19.5828 16.1121C19.4201 17.3224 19.1115 18.0454 18.5784 18.5784L19.6391 19.6391C20.4973 18.7809 20.8843 17.6886 21.0694 16.312C21.2516 14.9569 21.25 13.218 21.25 11H19.75ZM11 21.25C13.218 21.25 14.9569 21.2516 16.312 21.0694C17.6886 20.8843 18.7809 20.4973 19.6391 19.6391L18.5784 18.5784C18.0454 19.1115 17.3224 19.4201 16.1121 19.5828C14.8802 19.7484 13.2604 19.75 11 19.75V21.25ZM11 2.25C13.2604 2.25 14.8802 2.25159 16.1121 2.41722C17.3224 2.57994 18.0454 2.88853 18.5784 3.42157L19.6391 2.36091C18.7809 1.50271 17.6886 1.11568 16.312 0.930593C14.9569 0.748407 13.218 0.75 11 0.75V2.25ZM21.25 11C21.25 8.78203 21.2516 7.04311 21.0694 5.68802C20.8843 4.31137 20.4973 3.21911 19.6391 2.36091L18.5784 3.42157C19.1115 3.95462 19.4201 4.67757 19.5828 5.88789C19.7484 7.11979 19.75 8.73963 19.75 11H21.25ZM11 0.75C8.78203 0.75 7.04311 0.748407 5.68802 0.930593C4.31137 1.11568 3.21911 1.50271 2.36091 2.36091L3.42157 3.42157C3.95462 2.88853 4.67757 2.57994 5.88789 2.41722C7.11979 2.25159 8.73963 2.25 11 2.25V0.75ZM2.25 11C2.25 8.73963 2.25159 7.11979 2.41722 5.88789C2.57994 4.67757 2.88853 3.95462 3.42157 3.42157L2.36091 2.36091C1.50271 3.21911 1.11568 4.31137 0.930593 5.68802C0.748407 7.04311 0.75 8.78203 0.75 11H2.25ZM16.25 6.5C16.25 6.91421 15.9142 7.25 15.5 7.25V8.75C16.7426 8.75 17.75 7.74264 17.75 6.5H16.25ZM15.5 7.25C15.0858 7.25 14.75 6.91421 14.75 6.5H13.25C13.25 7.74264 14.2574 8.75 15.5 8.75V7.25ZM14.75 6.5C14.75 6.08579 15.0858 5.75 15.5 5.75V4.25C14.2574 4.25 13.25 5.25736 13.25 6.5H14.75ZM15.5 5.75C15.9142 5.75 16.25 6.08579 16.25 6.5H17.75C17.75 5.25736 16.7426 4.25 15.5 4.25V5.75ZM3.03041 13.7525C5.73583 13.6994 8.36366 14.4832 10.445 15.9476L11.3081 14.7208C8.95156 13.0627 6.00743 12.1938 3.00098 12.2528L3.03041 13.7525ZM10.445 15.9476C12.3738 17.3047 13.7084 19.1571 14.2775 21.2012L15.7225 20.7988C15.0526 18.3926 13.4952 16.2596 11.3081 14.7208L10.445 15.9476ZM2.04954 13.7834C2.37022 13.7622 2.69195 13.7519 3.01395 13.7527L3.01743 12.2527C2.66122 12.2518 2.30529 12.2632 1.95046 12.2867L2.04954 13.7834ZM17.3892 14.2501C15.3425 14.242 13.3501 14.9963 11.5388 16.4085L12.4612 17.5915C14.053 16.3504 15.7265 15.7435 17.3833 15.7501L17.3892 14.2501ZM20.7974 14.9732C19.6904 14.495 18.5442 14.2489 17.3854 14.2501L17.387 15.7501C18.3283 15.7491 19.2721 15.9483 20.2026 16.3502L20.7974 14.9732Z" fill="white"/>
</svg>
