<svg width="24" height="18" viewBox="0 0 24 18" fill="none" xmlns="http://www.w3.org/2000/svg">
<path d="M21.2652 10.9126L20.8076 11.5068H20.8076L21.2652 10.9126ZM22.6543 13.8691L22.072 13.3965H22.072L22.6543 13.8691ZM20.7739 14.25C20.3597 14.25 20.0239 14.5858 20.0239 15C20.0239 15.4142 20.3597 15.75 20.7739 15.75V14.25ZM19.0674 9.25305C18.6549 9.21573 18.2902 9.5199 18.2529 9.93242C18.2156 10.345 18.5198 10.7096 18.9323 10.7469L19.0674 9.25305ZM2.73452 10.9126L3.19211 11.5068H3.19211L2.73452 10.9126ZM1.34542 13.8691L1.92776 13.3965H1.92776L1.34542 13.8691ZM3.22584 15.75C3.64005 15.75 3.97584 15.4142 3.97584 15C3.97584 14.5858 3.64005 14.25 3.22584 14.25V15.75ZM5.06745 10.7469C5.47998 10.7096 5.78415 10.345 5.74683 9.93242C5.70951 9.5199 5.34483 9.21573 4.9323 9.25305L5.06745 10.7469ZM5.49988 8.75C5.91409 8.75 6.24988 8.41421 6.24988 8C6.24988 7.58579 5.91409 7.25 5.49988 7.25V8.75ZM5.49988 3.75C5.91409 3.75 6.24988 3.41421 6.24988 3C6.24988 2.58579 5.91409 2.25 5.49988 2.25V3.75ZM8.08365 12.1112L7.68921 11.4733L8.08365 12.1112ZM15.916 12.1112L16.3105 11.4733L15.916 12.1112ZM6.01454 15.6474L5.48706 16.1806V16.1806L6.01454 15.6474ZM17.9851 15.6474L17.4577 15.1143V15.1143L17.9851 15.6474ZM20.8076 11.5068C21.2272 11.8299 21.717 12.1397 22.0393 12.5477C22.1873 12.7351 22.2401 12.8758 22.2485 12.9752C22.2549 13.051 22.2442 13.1844 22.072 13.3965L23.2366 14.3418C23.6122 13.8791 23.7874 13.3714 23.7432 12.8489C23.701 12.3499 23.4668 11.935 23.2163 11.6179C22.7417 11.0171 21.9892 10.5235 21.7228 10.3184L20.8076 11.5068ZM22.072 13.3965C21.5766 14.0069 21.1734 14.25 20.7739 14.25V15.75C21.873 15.75 22.6618 15.0501 23.2366 14.3418L22.072 13.3965ZM18.9323 10.7469C19.5726 10.8049 20.2173 11.0522 20.8076 11.5068L21.7228 10.3184C20.9185 9.69902 20.006 9.33796 19.0674 9.25305L18.9323 10.7469ZM19.7499 5.5C19.7499 6.4665 18.9664 7.25 17.9999 7.25V8.75C19.7948 8.75 21.2499 7.29493 21.2499 5.5H19.7499ZM17.9999 3.75C18.9664 3.75 19.7499 4.5335 19.7499 5.5H21.2499C21.2499 3.70507 19.7948 2.25 17.9999 2.25V3.75ZM2.27693 10.3184C2.01049 10.5235 1.25802 11.0171 0.783419 11.6179C0.532936 11.935 0.298697 12.3499 0.256524 12.8489C0.212357 13.3714 0.387533 13.8791 0.76309 14.3418L1.92776 13.3965C1.75559 13.1844 1.74479 13.051 1.75119 12.9752C1.7596 12.8758 1.81248 12.7351 1.96045 12.5477C2.28278 12.1397 2.77258 11.8299 3.19211 11.5068L2.27693 10.3184ZM0.76309 14.3418C1.33794 15.0501 2.12674 15.75 3.22584 15.75V14.25C2.82633 14.25 2.42315 14.0069 1.92776 13.3965L0.76309 14.3418ZM4.9323 9.25305C3.99378 9.33796 3.08123 9.69902 2.27693 10.3184L3.19211 11.5068C3.78248 11.0522 4.42715 10.8049 5.06745 10.7469L4.9323 9.25305ZM2.24988 5.5C2.24988 7.29493 3.70495 8.75 5.49988 8.75V7.25C4.53338 7.25 3.74988 6.4665 3.74988 5.5H2.24988ZM5.49988 2.25C3.70495 2.25 2.24988 3.70507 2.24988 5.5H3.74988C3.74988 4.5335 4.53338 3.75 5.49988 3.75V2.25ZM8.47809 12.7491C10.6324 11.417 13.3673 11.417 15.5216 12.7491L16.3105 11.4733C13.6727 9.84224 10.327 9.84224 7.68921 11.4733L8.47809 12.7491ZM8.81547 17.75H15.1842V16.25H8.81547V17.75ZM6.54203 15.1143C6.24774 14.8231 6.24413 14.6527 6.25165 14.5812C6.26361 14.4676 6.34369 14.2859 6.58868 14.0368C7.09821 13.5189 7.88608 13.1152 8.47809 12.7491L7.68921 11.4733C7.25943 11.739 6.1969 12.2962 5.51939 12.9849C5.17087 13.3391 4.82327 13.8221 4.75989 14.4242C4.69209 15.0683 4.96549 15.6646 5.48706 16.1806L6.54203 15.1143ZM15.5216 12.7491C16.1136 13.1152 16.9015 13.5189 17.411 14.0368C17.656 14.2859 17.7361 14.4676 17.748 14.5812C17.7556 14.6527 17.752 14.8231 17.4577 15.1143L18.5126 16.1806C19.0342 15.6646 19.3076 15.0683 19.2398 14.4242C19.1764 13.8221 18.8288 13.3391 18.4803 12.9849C17.8028 12.2962 16.7403 11.739 16.3105 11.4733L15.5216 12.7491ZM17.4577 15.1143C16.7251 15.839 16.017 16.25 15.1842 16.25V17.75C16.5837 17.75 17.651 17.033 18.5126 16.1806L17.4577 15.1143ZM5.48706 16.1806C6.34868 17.033 7.41601 17.75 8.81547 17.75V16.25C7.98272 16.25 7.27456 15.839 6.54203 15.1143L5.48706 16.1806ZM14.7498 4.5C14.7498 6.01878 13.5186 7.25 11.9998 7.25V8.75C14.3471 8.75 16.2498 6.84721 16.2498 4.5H14.7498ZM11.9998 7.25C10.4811 7.25 9.24984 6.01878 9.24984 4.5H7.74984C7.74984 6.84721 9.65263 8.75 11.9998 8.75V7.25ZM9.24984 4.5C9.24984 2.98122 10.4811 1.75 11.9998 1.75V0.25C9.65263 0.25 7.74984 2.15279 7.74984 4.5H9.24984ZM11.9998 1.75C13.5186 1.75 14.7498 2.98122 14.7498 4.5H16.2498C16.2498 2.15279 14.3471 0.25 11.9998 0.25V1.75Z" fill="url(#paint0_linear_168_349)"/>
<defs>
<linearGradient id="paint0_linear_168_349" x1="0.116443" y1="1" x2="16.1436" y2="22.1866" gradientUnits="userSpaceOnUse">
<stop stop-color="#FC0305"/>
<stop offset="1" stop-color="#910305"/>
</linearGradient>
</defs>
</svg>
