<svg width="22" height="22" viewBox="0 0 22 22" fill="none" xmlns="http://www.w3.org/2000/svg">
<path d="M6.02111 3.6L5.58167 2.99223L6.02111 3.6ZM15.9791 3.6L16.4186 2.99223V2.99223L15.9791 3.6ZM1.65255 14.1724L0.911251 14.2863L1.65255 14.1724ZM20.3477 14.1724L19.6064 14.0585V14.0585L20.3477 14.1724ZM20.6487 12.2135L21.39 12.3274V12.3274L20.6487 12.2135ZM17.419 4.64106L16.9795 5.24884V5.24884L17.419 4.64106ZM1.35151 12.2135L2.09281 12.0995L1.35151 12.2135ZM4.58126 4.64106L5.0207 5.24884L4.58126 4.64106ZM13.5394 15.4082C12.874 15.9262 11.9865 16.25 11.0001 16.25V17.75C12.3142 17.75 13.5272 17.3186 14.4608 16.5918L13.5394 15.4082ZM11.0001 16.25C10.0137 16.25 9.12627 15.9262 8.46081 15.4082L7.53943 16.5918C8.47302 17.3186 9.68603 17.75 11.0001 17.75V16.25ZM19.9074 12.0995L19.6064 14.0585L21.089 14.2863L21.39 12.3274L19.9074 12.0995ZM12.1389 20.25H9.86131V21.75H12.1389V20.25ZM2.39385 14.0585L2.09281 12.0995L0.610215 12.3274L0.911251 14.2863L2.39385 14.0585ZM5.0207 5.24884L6.46055 4.20777L5.58167 2.99223L4.14182 4.03329L5.0207 5.24884ZM15.5397 4.20777L16.9795 5.24884L17.8584 4.03329L16.4186 2.99223L15.5397 4.20777ZM6.46055 4.20777C7.6733 3.33092 8.53209 2.7114 9.25799 2.30406C9.96653 1.90645 10.4831 1.75 11.0001 1.75V0.25C10.1341 0.25 9.3598 0.526884 8.52393 0.995945C7.70541 1.45527 6.76623 2.13575 5.58167 2.99223L6.46055 4.20777ZM16.4186 2.99223C15.234 2.13575 14.2948 1.45527 13.4763 0.995945C12.6404 0.526884 11.8662 0.25 11.0001 0.25V1.75C11.5171 1.75 12.0337 1.90645 12.7423 2.30406C13.4682 2.7114 14.3269 3.33092 15.5397 4.20777L16.4186 2.99223ZM9.86131 20.25C8.13509 20.25 6.90805 20.2487 5.96404 20.134C5.0388 20.0217 4.48046 19.8094 4.05072 19.452L3.09152 20.6052C3.82969 21.2192 4.70902 21.4926 5.78318 21.6231C6.83858 21.7513 8.17268 21.75 9.86131 21.75V20.25ZM0.911251 14.2863C1.15842 15.8947 1.35333 17.1728 1.64117 18.1662C1.93556 19.1821 2.35027 19.9887 3.09152 20.6052L4.05072 19.452C3.62406 19.0971 3.32971 18.6038 3.0819 17.7487C2.82754 16.8709 2.64712 15.7066 2.39385 14.0585L0.911251 14.2863ZM19.6064 14.0585C19.3531 15.7066 19.1727 16.8709 18.9183 17.7487C18.6705 18.6038 18.3762 19.0971 17.9495 19.452L18.9087 20.6052C19.65 19.9887 20.0647 19.1821 20.3591 18.1662C20.6469 17.1728 20.8418 15.8947 21.089 14.2863L19.6064 14.0585ZM12.1389 21.75C13.8276 21.75 15.1617 21.7513 16.2171 21.6231C17.2912 21.4926 18.1706 21.2192 18.9087 20.6052L17.9495 19.452C17.5198 19.8094 16.9614 20.0217 16.0362 20.134C15.0922 20.2487 13.8652 20.25 12.1389 20.25V21.75ZM21.39 12.3274C21.5642 11.1941 21.7044 10.2878 21.7407 9.53808C21.7779 8.77045 21.7109 8.10469 21.4338 7.45513L20.0541 8.04362C20.2113 8.41233 20.2732 8.83 20.2425 9.46554C20.2108 10.119 20.0863 10.9356 19.9074 12.0995L21.39 12.3274ZM16.9795 5.24884C17.9552 5.95427 18.642 6.45189 19.1435 6.8969C19.6331 7.33129 19.8962 7.6735 20.0541 8.04362L21.4338 7.45513C21.1574 6.807 20.7216 6.29173 20.139 5.77487C19.5685 5.26863 18.8099 4.72122 17.8584 4.03329L16.9795 5.24884ZM2.09281 12.0995C1.91394 10.9356 1.78941 10.119 1.75778 9.46554C1.72701 8.83 1.7889 8.41233 1.94616 8.04362L0.566416 7.45513C0.289372 8.10469 0.222367 8.77045 0.259531 9.53808C0.295827 10.2878 0.436063 11.1941 0.610215 12.3274L2.09281 12.0995ZM4.14182 4.03329C3.19036 4.72122 2.43179 5.26863 1.86121 5.77487C1.27867 6.29173 0.842857 6.807 0.566416 7.45513L1.94616 8.04362C2.10402 7.6735 2.36714 7.33129 2.85673 6.8969C3.35829 6.45189 4.04504 5.95427 5.0207 5.24884L4.14182 4.03329Z" fill="white"/>
</svg>
