<svg width="22" height="22" viewBox="0 0 22 22" fill="none" xmlns="http://www.w3.org/2000/svg">
<path d="M8.40154 18.2621L8.21228 18.9878L8.40154 18.2621ZM7.04163 16.6135L6.32693 16.8409L7.04163 16.6135ZM7.37216 17.4848L6.73076 17.8735L7.37216 17.4848ZM14.9567 16.6135L15.6714 16.8409L14.9567 16.6135ZM14.6262 17.4848L15.2676 17.8735L14.6262 17.4848ZM13.5968 18.2621L13.786 18.9878L13.5968 18.2621ZM14.7435 15.6671L15.0256 14.9722L14.7435 15.6671ZM15.0702 16.142L15.8194 16.1077L15.0702 16.142ZM7.2548 15.6671L6.9727 14.9722L7.2548 15.6671ZM6.92809 16.142L6.17888 16.1077L6.92809 16.142ZM14.3071 18.4562C14.3851 18.0494 14.1185 17.6564 13.7117 17.5785C13.3049 17.5005 12.9119 17.7671 12.8339 18.1739L14.3071 18.4562ZM13.4597 18.8936L12.7231 18.7525V18.7525L13.4597 18.8936ZM8.53853 18.8936L9.27513 18.7525L8.53853 18.8936ZM9.16429 18.1739C9.08634 17.7671 8.69337 17.5005 8.28656 17.5785C7.87974 17.6564 7.61314 18.0494 7.69108 18.4562L9.16429 18.1739ZM9.81059 20.9093L9.56652 21.6185L9.81059 20.9093ZM8.85615 20.0925L8.19712 20.4506L8.85615 20.0925ZM13.1421 20.0925L13.8011 20.4506L13.1421 20.0925ZM12.1876 20.9093L12.4317 21.6185L12.1876 20.9093ZM4.40413 14.3048C4.57249 14.6833 5.01578 14.8536 5.39423 14.6852C5.77268 14.5169 5.94299 14.0736 5.77463 13.6952L4.40413 14.3048ZM16.2254 13.6951C16.057 14.0736 16.2273 14.5169 16.6058 14.6852C16.9842 14.8536 17.4275 14.6833 17.5959 14.3049L16.2254 13.6951ZM11.75 1C11.75 0.585786 11.4142 0.25 11 0.25C10.5858 0.25 10.25 0.585786 10.25 1H11.75ZM10.25 2C10.25 2.41421 10.5858 2.75 11 2.75C11.4142 2.75 11.75 2.41421 11.75 2H10.25ZM21 11.75C21.4142 11.75 21.75 11.4142 21.75 11C21.75 10.5858 21.4142 10.25 21 10.25V11.75ZM20 10.25C19.5858 10.25 19.25 10.5858 19.25 11C19.25 11.4142 19.5858 11.75 20 11.75V10.25ZM2 11.75C2.41421 11.75 2.75 11.4142 2.75 11C2.75 10.5858 2.41421 10.25 2 10.25V11.75ZM1 10.25C0.585786 10.25 0.25 10.5858 0.25 11C0.25 11.4142 0.585786 11.75 1 11.75V10.25ZM18.6006 4.45929C18.8935 4.16639 18.8935 3.69152 18.6006 3.39863C18.3078 3.10573 17.8329 3.10573 17.54 3.39862L18.6006 4.45929ZM16.8329 4.10573C16.54 4.39862 16.54 4.8735 16.8329 5.16639C17.1258 5.45929 17.6006 5.45929 17.8935 5.16639L16.8329 4.10573ZM4.10639 5.1668C4.39928 5.4597 4.87416 5.4597 5.16705 5.1668C5.45994 4.87391 5.45994 4.39904 5.16705 4.10614L4.10639 5.1668ZM4.45994 3.39904C4.16705 3.10614 3.69218 3.10614 3.39928 3.39904C3.10639 3.69193 3.10639 4.1668 3.39928 4.4597L4.45994 3.39904ZM7.71765 16.3809H14.2807V14.8809H7.71765V16.3809ZM12.7033 17.5651H9.29505V19.0651H12.7033V17.5651ZM9.29505 17.5651C8.79229 17.5651 8.67841 17.5592 8.5908 17.5364L8.21228 18.9878C8.53106 19.0709 8.87738 19.0651 9.29505 19.0651V17.5651ZM6.32693 16.8409C6.46032 17.2601 6.56102 17.5934 6.73076 17.8735L8.01356 17.0961C7.95883 17.0057 7.91399 16.8816 7.75632 16.3861L6.32693 16.8409ZM8.5908 17.5364C8.36042 17.4763 8.15107 17.323 8.01356 17.0961L6.73076 17.8735C7.06351 18.4225 7.59133 18.8259 8.21228 18.9878L8.5908 17.5364ZM14.242 16.3861C14.0843 16.8816 14.0395 17.0057 13.9848 17.0961L15.2676 17.8735C15.4373 17.5934 15.538 17.2601 15.6714 16.8409L14.242 16.3861ZM12.7033 19.0651C13.1209 19.0651 13.4673 19.0709 13.786 18.9878L13.4075 17.5364C13.3199 17.5592 13.206 17.5651 12.7033 17.5651V19.0651ZM13.9848 17.0961C13.8473 17.323 13.6379 17.4763 13.4075 17.5364L13.786 18.9878C14.407 18.8259 14.9348 18.4225 15.2676 17.8735L13.9848 17.0961ZM14.2807 16.3809C14.3442 16.3809 14.3939 16.3809 14.4367 16.3814C14.4795 16.3819 14.5071 16.3828 14.5258 16.384C14.569 16.3866 14.5279 16.389 14.4614 16.3621L15.0256 14.9722C14.8698 14.909 14.7218 14.8932 14.6182 14.8868C14.5162 14.8805 14.3957 14.8809 14.2807 14.8809V16.3809ZM15.6714 16.8409C15.7081 16.7255 15.7455 16.6089 15.7711 16.5091C15.7971 16.408 15.8268 16.2678 15.8194 16.1077L14.321 16.1763C14.3183 16.1165 14.3306 16.0882 14.3183 16.1359C14.3129 16.1571 14.3045 16.1865 14.2912 16.2299C14.2779 16.2732 14.262 16.3231 14.242 16.3861L15.6714 16.8409ZM14.4614 16.3621C14.3651 16.3229 14.324 16.2414 14.321 16.1763L15.8194 16.1077C15.7971 15.6185 15.4999 15.1647 15.0256 14.9722L14.4614 16.3621ZM7.71765 14.8809C7.60267 14.8809 7.48208 14.8805 7.38013 14.8868C7.27652 14.8932 7.1285 14.909 6.9727 14.9722L7.53689 16.3621C7.47042 16.389 7.42932 16.3866 7.47256 16.384C7.49124 16.3828 7.51882 16.3819 7.56168 16.3814C7.60444 16.3809 7.65411 16.3809 7.71765 16.3809V14.8809ZM7.75632 16.3861C7.73628 16.3231 7.7204 16.2732 7.70714 16.2299C7.69385 16.1865 7.68546 16.1571 7.68003 16.1359C7.66777 16.0882 7.68005 16.1165 7.67731 16.1763L6.17888 16.1077C6.17155 16.2678 6.20122 16.408 6.22719 16.5091C6.25283 16.6089 6.2902 16.7255 6.32693 16.8409L7.75632 16.3861ZM6.9727 14.9722C6.49844 15.1647 6.20126 15.6185 6.17888 16.1077L7.67731 16.1763C7.67433 16.2414 7.63327 16.3229 7.53689 16.3621L6.9727 14.9722ZM12.8339 18.1739L12.7231 18.7525L14.1963 19.0347L14.3071 18.4562L12.8339 18.1739ZM9.27513 18.7525L9.16429 18.1739L7.69108 18.4562L7.80193 19.0347L9.27513 18.7525ZM10.9991 20.2493C10.3233 20.2493 10.1684 20.2393 10.0547 20.2001L9.56652 21.6185C9.97568 21.7593 10.4388 21.7493 10.9991 21.7493V20.2493ZM7.80193 19.0347C7.91289 19.6139 7.99194 20.0729 8.19712 20.4506L9.51518 19.7345C9.44875 19.6122 9.40659 19.4386 9.27513 18.7525L7.80193 19.0347ZM10.0547 20.2001C9.83333 20.124 9.63846 19.9614 9.51518 19.7345L8.19712 20.4506C8.49378 20.9966 8.97933 21.4164 9.56652 21.6185L10.0547 20.2001ZM12.7231 18.7525C12.5916 19.4386 12.5495 19.6122 12.4831 19.7345L13.8011 20.4506C14.0063 20.0729 14.0853 19.6139 14.1963 19.0347L12.7231 18.7525ZM10.9991 21.7493C11.5594 21.7493 12.0226 21.7593 12.4317 21.6185L11.9436 20.2001C11.8298 20.2393 11.6749 20.2493 10.9991 20.2493V21.7493ZM12.4831 19.7345C12.3598 19.9614 12.1649 20.124 11.9436 20.2001L12.4317 21.6185C13.0189 21.4164 13.5044 20.9966 13.8011 20.4506L12.4831 19.7345ZM5.25 11.2059C5.25 7.89432 7.84624 5.25 11 5.25V3.75C6.97406 3.75 3.75 7.11033 3.75 11.2059H5.25ZM11 5.25C14.1538 5.25 16.75 7.89432 16.75 11.2059H18.25C18.25 7.11033 15.0259 3.75 11 3.75V5.25ZM5.77463 13.6952C5.43829 12.9391 5.25 12.0965 5.25 11.2059H3.75C3.75 12.3096 3.98366 13.3597 4.40413 14.3048L5.77463 13.6952ZM16.75 11.2059C16.75 12.0965 16.5617 12.9391 16.2254 13.6951L17.5959 14.3049C18.0163 13.3597 18.25 12.3096 18.25 11.2059H16.75ZM10.25 1V2H11.75V1H10.25ZM21 10.25H20V11.75H21V10.25ZM2 10.25H1V11.75H2V10.25ZM17.54 3.39862L16.8329 4.10573L17.8935 5.16639L18.6006 4.45929L17.54 3.39862ZM5.16705 4.10614L4.45994 3.39904L3.39928 4.4597L4.10639 5.1668L5.16705 4.10614Z" fill="white"/>
</svg>
