<svg width="22" height="22" viewBox="0 0 22 22" fill="none" xmlns="http://www.w3.org/2000/svg">
<path d="M5.25 16C5.25 16.4142 5.58579 16.75 6 16.75C6.41421 16.75 6.75 16.4142 6.75 16H5.25ZM6.75 12C6.75 11.5858 6.41421 11.25 6 11.25C5.58579 11.25 5.25 11.5858 5.25 12H6.75ZM10.25 16C10.25 16.4142 10.5858 16.75 11 16.75C11.4142 16.75 11.75 16.4142 11.75 16H10.25ZM11.75 6C11.75 5.58579 11.4142 5.25 11 5.25C10.5858 5.25 10.25 5.58579 10.25 6H11.75ZM15.25 16C15.25 16.4142 15.5858 16.75 16 16.75C16.4142 16.75 16.75 16.4142 16.75 16H15.25ZM16.75 10C16.75 9.58579 16.4142 9.25 16 9.25C15.5858 9.25 15.25 9.58579 15.25 10H16.75ZM6.75 16V12H5.25V16H6.75ZM11.75 16V6H10.25V16H11.75ZM16.75 16V10H15.25V16H16.75ZM11 19.75C8.73963 19.75 7.11979 19.7484 5.88789 19.5828C4.67757 19.4201 3.95462 19.1115 3.42157 18.5784L2.36091 19.6391C3.21911 20.4973 4.31137 20.8843 5.68802 21.0694C7.04311 21.2516 8.78203 21.25 11 21.25V19.75ZM0.75 11C0.75 13.218 0.748407 14.9569 0.930593 16.312C1.11568 17.6886 1.50271 18.7809 2.36091 19.6391L3.42157 18.5784C2.88853 18.0454 2.57994 17.3224 2.41722 16.1121C2.25159 14.8802 2.25 13.2604 2.25 11H0.75ZM19.75 11C19.75 13.2604 19.7484 14.8802 19.5828 16.1121C19.4201 17.3224 19.1115 18.0454 18.5784 18.5784L19.6391 19.6391C20.4973 18.7809 20.8843 17.6886 21.0694 16.312C21.2516 14.9569 21.25 13.218 21.25 11H19.75ZM11 21.25C13.218 21.25 14.9569 21.2516 16.312 21.0694C17.6886 20.8843 18.7809 20.4973 19.6391 19.6391L18.5784 18.5784C18.0454 19.1115 17.3224 19.4201 16.1121 19.5828C14.8802 19.7484 13.2604 19.75 11 19.75V21.25ZM11 2.25C13.2604 2.25 14.8802 2.25159 16.1121 2.41722C17.3224 2.57994 18.0454 2.88853 18.5784 3.42157L19.6391 2.36091C18.7809 1.50271 17.6886 1.11568 16.312 0.930593C14.9569 0.748407 13.218 0.75 11 0.75V2.25ZM21.25 11C21.25 8.78203 21.2516 7.04311 21.0694 5.68802C20.8843 4.31137 20.4973 3.21911 19.6391 2.36091L18.5784 3.42157C19.1115 3.95462 19.4201 4.67757 19.5828 5.88789C19.7484 7.11979 19.75 8.73963 19.75 11H21.25ZM11 0.75C8.78203 0.75 7.04311 0.748407 5.68802 0.930593C4.31137 1.11568 3.21911 1.50271 2.36091 2.36091L3.42157 3.42157C3.95462 2.88853 4.67757 2.57994 5.88789 2.41722C7.11979 2.25159 8.73963 2.25 11 2.25V0.75ZM2.25 11C2.25 8.73963 2.25159 7.11979 2.41722 5.88789C2.57994 4.67757 2.88853 3.95462 3.42157 3.42157L2.36091 2.36091C1.50271 3.21911 1.11568 4.31137 0.930593 5.68802C0.748407 7.04311 0.75 8.78203 0.75 11H2.25Z" fill="white"/>
</svg>
