<svg width="22" height="22" viewBox="0 0 22 22" fill="none" xmlns="http://www.w3.org/2000/svg">
<path d="M3.47513 8.27941L4.22513 8.27948V8.27941H3.47513ZM18.5249 8.27941H17.7749V8.27948L18.5249 8.27941ZM18.5679 16.1542L18.8477 16.8501V16.8501L18.5679 16.1542ZM3.43205 16.1542L3.71184 15.4584H3.71184L3.43205 16.1542ZM19.2144 11.194L18.5998 11.6239L18.6023 11.6274L19.2144 11.194ZM20.4701 13.394L19.7292 13.5105L19.7292 13.5105L20.4701 13.394ZM2.78561 11.194L3.3977 11.6274L3.40017 11.6239L2.78561 11.194ZM1.52992 13.394L0.789018 13.2776H0.789017L1.52992 13.394ZM8.46168 19.4089C8.13525 19.154 7.66392 19.2119 7.40894 19.5383C7.15396 19.8648 7.21189 20.3361 7.53832 20.5911L8.46168 19.4089ZM14.4617 20.5911C14.7881 20.3361 14.846 19.8648 14.5911 19.5383C14.3361 19.2119 13.8648 19.154 13.5383 19.4089L14.4617 20.5911ZM18.2882 15.4584C14.0049 17.1805 7.99506 17.1805 3.71184 15.4584L3.15227 16.8501C7.79456 18.7166 14.2054 18.7166 18.8477 16.8501L18.2882 15.4584ZM19.2749 8.27941C19.2749 3.82164 15.5464 0.25 11 0.25V1.75C14.7653 1.75 17.7749 4.69657 17.7749 8.27941H19.2749ZM4.22513 8.27941C4.22513 4.69657 7.2347 1.75 11 1.75V0.25C6.45355 0.25 2.72513 3.82164 2.72513 8.27941H4.22513ZM3.71184 15.4584C2.69102 15.0479 2.13777 14.3571 2.27083 13.5105L0.789017 13.2776C0.496771 15.137 1.84498 16.3245 3.15227 16.8501L3.71184 15.4584ZM18.8477 16.8501C20.155 16.3245 21.5032 15.137 21.211 13.2776L19.7292 13.5105C19.8622 14.3571 19.309 15.0479 18.2882 15.4584L18.8477 16.8501ZM19.829 10.7641C19.3461 10.0739 19.275 9.30737 19.2749 8.27935L17.7749 8.27948C17.775 9.33206 17.8284 10.5212 18.5998 11.6239L19.829 10.7641ZM3.40017 11.6239C4.17158 10.5212 4.22503 9.33205 4.22513 8.27948L2.72513 8.27935C2.72504 9.30737 2.65387 10.0739 2.17105 10.7641L3.40017 11.6239ZM2.17353 10.7606C2.06186 10.9183 1.9419 11.0749 1.80616 11.2556C1.67482 11.4304 1.53314 11.6221 1.40057 11.8237C1.13788 12.2232 0.878391 12.709 0.789018 13.2776L2.27083 13.5105C2.31214 13.2476 2.44111 12.9714 2.6539 12.6478C2.75907 12.4879 2.87688 12.3277 3.00545 12.1565C3.12961 11.9913 3.26998 11.8078 3.39769 11.6274L2.17353 10.7606ZM18.6023 11.6274C18.73 11.8078 18.8704 11.9913 18.9946 12.1565C19.1231 12.3277 19.2409 12.4879 19.3461 12.6478C19.5589 12.9714 19.6879 13.2476 19.7292 13.5105L21.211 13.2776C21.1216 12.709 20.8621 12.2232 20.5994 11.8237C20.4669 11.6221 20.3252 11.4304 20.1938 11.2556C20.0581 11.0749 19.9381 10.9183 19.8265 10.7606L18.6023 11.6274ZM11 20.25C10.0109 20.25 9.12292 19.9254 8.46168 19.4089L7.53832 20.5911C8.46935 21.3183 9.68406 21.75 11 21.75V20.25ZM13.5383 19.4089C12.8771 19.9254 11.9891 20.25 11 20.25V21.75C12.3159 21.75 13.5306 21.3183 14.4617 20.5911L13.5383 19.4089Z" fill="#8F9695"/>
</svg>
