<svg width="16" height="16" viewBox="0 0 16 16" fill="none" xmlns="http://www.w3.org/2000/svg">
<path d="M11.2195 6.50647C11.4993 6.20113 11.4787 5.7267 11.1734 5.44681C10.868 5.16691 10.3936 5.18754 10.1137 5.49288L11.2195 6.50647ZM6.99992 9.99967L6.46959 10.53C6.61424 10.6747 6.8117 10.7539 7.01621 10.7495C7.22073 10.7451 7.41456 10.6573 7.55278 10.5065L6.99992 9.99967ZM5.86358 7.80268C5.57069 7.50978 5.09582 7.50978 4.80292 7.80268C4.51003 8.09557 4.51003 8.57045 4.80292 8.86334L5.86358 7.80268ZM15.4166 7.99967C15.4166 3.90356 12.096 0.583008 7.99992 0.583008V2.08301C11.2676 2.08301 13.9166 4.73199 13.9166 7.99967H15.4166ZM7.99992 0.583008C3.90381 0.583008 0.583252 3.90356 0.583252 7.99967H2.08325C2.08325 4.73199 4.73223 2.08301 7.99992 2.08301V0.583008ZM0.583252 7.99967C0.583252 12.0958 3.90381 15.4163 7.99992 15.4163V13.9163C4.73223 13.9163 2.08325 11.2674 2.08325 7.99967H0.583252ZM7.99992 15.4163C12.096 15.4163 15.4166 12.0958 15.4166 7.99967H13.9166C13.9166 11.2674 11.2676 13.9163 7.99992 13.9163V15.4163ZM10.1137 5.49288L6.44705 9.49288L7.55278 10.5065L11.2195 6.50647L10.1137 5.49288ZM7.53025 9.46935L5.86358 7.80268L4.80292 8.86334L6.46959 10.53L7.53025 9.46935Z" fill="#141B34"/>
</svg>
