<svg width="16" height="16" viewBox="0 0 16 16" fill="none" xmlns="http://www.w3.org/2000/svg">
<path d="M9.46938 10.531C9.76225 10.8239 10.2371 10.8239 10.53 10.531C10.8229 10.2381 10.823 9.76326 10.5301 9.47035L9.46938 10.531ZM6.53052 5.47035C6.23764 5.17744 5.76277 5.17742 5.46986 5.47029C5.17695 5.76317 5.17693 6.23804 5.4698 6.53095L6.53052 5.47035ZM5.47023 9.47035C5.17735 9.76326 5.17738 10.2381 5.47029 10.531C5.7632 10.8239 6.23807 10.8239 6.53095 10.531L5.47023 9.47035ZM10.5305 6.53095C10.8234 6.23804 10.8234 5.76317 10.5305 5.47029C10.2376 5.17742 9.76268 5.17744 9.4698 5.47035L10.5305 6.53095ZM10.5301 9.47035L8.53052 7.47056L7.4698 8.53117L9.46938 10.531L10.5301 9.47035ZM8.53052 7.47056L6.53052 5.47035L5.4698 6.53095L7.4698 8.53117L8.53052 7.47056ZM6.53095 10.531L8.53052 8.53117L7.4698 7.47056L5.47023 9.47035L6.53095 10.531ZM8.53052 8.53117L10.5305 6.53095L9.4698 5.47035L7.4698 7.47056L8.53052 8.53117ZM15.4168 8.00065C15.4168 3.90454 12.0963 0.583984 8.00016 0.583984V2.08398C11.2678 2.08398 13.9168 4.73297 13.9168 8.00065H15.4168ZM8.00016 0.583984C3.90405 0.583984 0.583496 3.90454 0.583496 8.00065H2.0835C2.0835 4.73297 4.73248 2.08398 8.00016 2.08398V0.583984ZM0.583496 8.00065C0.583496 12.0968 3.90405 15.4173 8.00016 15.4173V13.9173C4.73248 13.9173 2.0835 11.2683 2.0835 8.00065H0.583496ZM8.00016 15.4173C12.0963 15.4173 15.4168 12.0968 15.4168 8.00065H13.9168C13.9168 11.2683 11.2678 13.9173 8.00016 13.9173V15.4173Z" fill="white"/>
</svg>
