<svg width="16" height="16" viewBox="0 0 16 16" fill="none" xmlns="http://www.w3.org/2000/svg">
<path d="M9.46913 10.53C9.76201 10.8229 10.2369 10.8229 10.5298 10.53C10.8227 10.2372 10.8227 9.76228 10.5299 9.46937L9.46913 10.53ZM6.53028 5.46937C6.2374 5.17646 5.76253 5.17644 5.46962 5.46932C5.17671 5.76219 5.17668 6.23707 5.46956 6.52998L6.53028 5.46937ZM5.46999 9.46937C5.17711 9.76228 5.17714 10.2372 5.47004 10.53C5.76295 10.8229 6.23783 10.8229 6.5307 10.53L5.46999 9.46937ZM10.5303 6.52998C10.8232 6.23707 10.8231 5.76219 10.5302 5.46932C10.2373 5.17644 9.76244 5.17646 9.46956 5.46937L10.5303 6.52998ZM10.5299 9.46937L8.53028 7.46959L7.46956 8.53019L9.46913 10.53L10.5299 9.46937ZM8.53028 7.46959L6.53028 5.46937L5.46956 6.52998L7.46956 8.53019L8.53028 7.46959ZM6.5307 10.53L8.53028 8.53019L7.46956 7.46959L5.46999 9.46937L6.5307 10.53ZM8.53028 8.53019L10.5303 6.52998L9.46956 5.46937L7.46956 7.46959L8.53028 8.53019ZM15.4166 7.99967C15.4166 3.90356 12.096 0.583008 7.99992 0.583008V2.08301C11.2676 2.08301 13.9166 4.73199 13.9166 7.99967H15.4166ZM7.99992 0.583008C3.90381 0.583008 0.583252 3.90356 0.583252 7.99967H2.08325C2.08325 4.73199 4.73223 2.08301 7.99992 2.08301V0.583008ZM0.583252 7.99967C0.583252 12.0958 3.90381 15.4163 7.99992 15.4163V13.9163C4.73223 13.9163 2.08325 11.2674 2.08325 7.99967H0.583252ZM7.99992 15.4163C12.096 15.4163 15.4166 12.0958 15.4166 7.99967H13.9166C13.9166 11.2674 11.2676 13.9163 7.99992 13.9163V15.4163Z" fill="#FC0305"/>
</svg>
